<svg width="652" height="456" viewBox="0 0 652 456" fill="none" xmlns="http://www.w3.org/2000/svg">
<path d="M325.927 455.449C491.7 455.449 626.086 439.539 626.086 419.913C626.086 400.288 491.7 384.378 325.927 384.378C160.153 384.378 25.7666 400.288 25.7666 419.913C25.7666 439.539 160.153 455.449 325.927 455.449Z" fill="#EBEBEB"/>
<path d="M0 354.206L81.4778 353.841L162.956 353.704L325.927 353.446L488.897 353.704L570.375 353.841L651.853 354.206L570.375 354.57L488.897 354.707L325.927 354.965L162.956 354.707L81.4778 354.57L0 354.206Z" fill="#263238"/>
<path d="M261.1 240.246L264.533 260.832L287.793 386.414H291.531L274.621 260.832L272.13 240.246H261.1Z" fill="#DBDBDB"/>
<path d="M272.13 240.246H261.1L264.533 260.832H274.621L272.13 240.246Z" fill="#A6A6A6"/>
<path d="M188.069 386.414H191.822L215.081 260.832L218.515 240.246H207.485L204.994 260.832L188.069 386.414Z" fill="#DBDBDB"/>
<path d="M207.485 240.246L204.994 260.832H215.081L218.515 240.246H207.485Z" fill="#A6A6A6"/>
<path d="M118.335 386.414H122.072L145.332 260.832L148.766 240.246H137.736L135.244 260.832L118.335 386.414Z" fill="#DBDBDB"/>
<path d="M135.244 260.832H145.332L148.766 240.246H137.736L135.244 260.832Z" fill="#A6A6A6"/>
<path d="M124.275 249.924H294.66V231.966H230.882L209.445 107.25H130.778L124.275 249.924Z" fill="#DBDBDB"/>
<path d="M124.275 249.924H133.558L139.62 107.25H130.778L124.275 249.924Z" fill="#A6A6A6"/>
<path d="M303.138 410.145C299.734 410.524 206.255 390.014 203.262 387.052C202.897 386.718 204.583 378.225 207.06 366.633V366.405C208.579 359.067 234.68 299.436 234.68 299.436L295.313 315.176L268.878 370.553C268.878 370.553 280.379 378.544 290.254 386.156C294.621 389.318 298.791 392.742 302.743 396.411C305.629 399.981 306.48 409.75 303.138 410.145Z" fill="#AD6359"/>
<path d="M303.138 410.145C299.734 410.54 206.255 390.03 203.262 387.067C202.897 386.733 204.583 378.24 207.06 366.648V366.436C207.622 363.701 211.617 353.674 216.388 342.203C226.369 344.695 262.133 353.674 275.123 357.396L268.863 370.522C268.863 370.522 280.364 378.529 290.239 386.125C294.604 389.284 298.774 392.704 302.727 396.365C305.629 399.996 306.48 409.75 303.138 410.145Z" fill="#EBEBEB"/>
<path d="M303.381 410.54C299.871 410.919 206.33 390.151 203.262 387.097C202.092 385.943 203.884 371.221 208.701 355.558L269 369.018C269 369.018 300.099 392.734 303.138 396.471C306.176 400.209 306.89 410.145 303.381 410.54Z" fill="#A6A6A6"/>
<path d="M203.262 387.098C205.313 389.133 247.852 399.1 276.839 405.329C291.181 408.367 302.226 410.646 303.366 410.524C306.89 410.145 306.085 400.102 303.107 396.411C299.256 392.724 295.198 389.26 290.953 386.034C281.108 378.195 269.015 368.973 269.015 368.973L208.716 355.527C203.884 371.221 202.077 385.958 203.262 387.098Z" fill="#C7C7C7"/>
<path d="M276.839 405.359C291.181 408.398 302.226 410.676 303.366 410.555C306.89 410.175 306.085 400.133 303.107 396.441C299.256 392.754 295.198 389.29 290.953 386.064L276.839 405.359Z" fill="#A6A6A6"/>
<path d="M302.864 406.514C287.277 402.639 223.999 388.51 208.29 385.882C208.169 385.882 208.154 385.882 208.29 385.973C223.665 390.151 287.049 403.764 302.834 406.757C303.138 406.833 303.138 406.59 302.864 406.514Z" fill="#263238"/>
<path d="M297.835 391.746C296.102 391.309 294.296 391.237 292.533 391.535C290.77 391.833 289.089 392.495 287.596 393.478C284.901 395.23 282.982 397.949 282.233 401.075C282.233 401.181 282.385 401.211 282.43 401.075C283.655 398.092 285.814 395.586 288.583 393.934C291.353 392.282 294.583 391.573 297.79 391.914C297.802 391.922 297.816 391.926 297.83 391.928C297.844 391.93 297.859 391.928 297.872 391.923C297.886 391.918 297.898 391.909 297.908 391.899C297.917 391.888 297.924 391.875 297.928 391.861C297.932 391.848 297.932 391.833 297.929 391.819C297.926 391.805 297.92 391.792 297.911 391.78C297.902 391.769 297.89 391.76 297.877 391.754C297.864 391.748 297.85 391.746 297.835 391.746Z" fill="#263238"/>
<path d="M273.573 371.677C267.314 370.158 259.55 370.796 254.506 375.065C254.309 375.232 254.506 375.506 254.749 375.445C260.879 373.773 267.168 372.755 273.512 372.406C273.587 372.383 273.653 372.338 273.702 372.276C273.752 372.215 273.781 372.14 273.788 372.062C273.794 371.984 273.777 371.905 273.739 371.837C273.701 371.768 273.643 371.713 273.573 371.677Z" fill="#263238"/>
<path d="M277.994 374.64C271.735 373.12 263.971 373.758 258.927 378.027C258.73 378.195 258.927 378.468 259.186 378.407C265.311 376.753 271.596 375.76 277.933 375.445C278.029 375.435 278.118 375.392 278.185 375.323C278.252 375.254 278.293 375.164 278.3 375.068C278.308 374.972 278.281 374.876 278.225 374.798C278.169 374.72 278.087 374.664 277.994 374.64Z" fill="#263238"/>
<path d="M282.43 377.602C276.171 376.083 268.392 376.721 263.363 380.99C263.166 381.157 263.363 381.431 263.607 381.385C269.728 379.698 276.014 378.679 282.354 378.347C282.429 378.322 282.495 378.276 282.545 378.214C282.594 378.152 282.625 378.078 282.633 377.999C282.641 377.92 282.626 377.841 282.59 377.771C282.554 377.7 282.499 377.642 282.43 377.602Z" fill="#263238"/>
<path d="M286.851 380.565C280.592 379.045 272.828 379.684 267.784 383.953C267.587 384.12 267.785 384.393 268.028 384.348C274.154 382.66 280.445 381.642 286.79 381.309C286.865 381.282 286.929 381.235 286.977 381.173C287.025 381.11 287.054 381.035 287.061 380.956C287.067 380.878 287.051 380.799 287.013 380.73C286.976 380.66 286.92 380.603 286.851 380.565Z" fill="#263238"/>
<path d="M270.717 371.905L206.346 355.892C206.346 355.892 263.91 229.505 259.246 223.17C256.922 219.994 196.835 218.353 177.905 201.9C153.324 180.539 170.309 148.559 170.309 148.559L237.506 147.313C237.506 147.313 236.533 161.351 239.131 163.493C240.833 164.921 320.731 172.609 329.193 199.697C339.6 232.969 270.717 371.905 270.717 371.905Z" fill="#263238"/>
<path d="M273.527 358.292C271.813 357.536 270.046 356.907 268.24 356.409C266.372 355.786 264.503 355.178 262.619 354.601C258.912 353.461 255.19 352.367 251.452 351.365C243.932 349.329 236.381 347.354 228.8 345.515C224.85 344.573 216.373 342.477 215.856 342.583C215.598 342.583 215.552 343.039 215.78 343.115C223.118 345.637 230.563 347.794 238.007 349.952C245.451 352.109 252.881 354.251 260.416 356.029C262.497 356.53 264.594 356.971 266.691 357.442C268.874 358.046 271.098 358.493 273.345 358.779C273.573 358.824 273.77 358.49 273.527 358.292Z" fill="#37474F"/>
<path d="M270.793 217.731C269.285 216.75 267.545 216.184 265.749 216.09L236.746 210.879C227.631 209.253 218.515 207.84 209.597 205.926C202.137 204.407 194.556 202.356 188.145 198.223C181.854 194.145 177.243 187.937 175.155 180.737C173.189 173.52 172.698 165.981 173.712 158.571C173.91 156.763 174.259 154.97 174.608 153.192C174.608 153.164 174.597 153.137 174.577 153.117C174.557 153.097 174.53 153.086 174.502 153.086C174.474 153.086 174.447 153.097 174.427 153.117C174.407 153.137 174.396 153.164 174.396 153.192C171.783 166.866 171.357 182.894 181.551 194C186.504 199.393 193.371 202.629 200.39 204.741C208.388 206.892 216.505 208.576 224.698 209.785C234.381 211.517 244.054 213.249 253.716 214.981C258.365 215.816 263.09 216.5 267.709 217.503C268.64 217.63 269.513 218.032 270.215 218.657C270.546 219.144 270.752 219.705 270.816 220.291C270.879 220.876 270.798 221.468 270.58 222.015C270.094 224.294 269.456 226.573 268.772 228.776C263.257 246.794 223.924 332.313 222.845 334.288C222.738 334.501 223.058 334.653 223.179 334.455C232.295 318.716 261.54 252.704 267.617 235.703C269.217 231.375 270.541 226.95 271.583 222.455C271.978 220.799 272.19 218.961 270.793 217.731Z" fill="#37474F"/>
<path d="M399.033 415.325C395.767 416.389 300.069 414.885 296.559 412.575C296.134 412.332 296.088 403.673 296.21 391.822V391.595C296.21 384.089 294.691 319.931 294.691 319.931L354.58 320.144L357.618 383.345C357.618 383.345 370.486 388.89 381.683 394.375C386.588 396.625 391.357 399.162 395.964 401.971C399.535 404.888 402.3 414.292 399.033 415.325Z" fill="#AD6359"/>
<path d="M399.033 415.325C395.767 416.374 300.069 414.885 296.544 412.576C296.134 412.332 296.088 403.673 296.21 391.822V389.999C296.21 389.619 296.21 389.24 296.21 388.86C296.21 388.48 296.21 387.72 296.21 387.143C296.21 382.16 295.997 374.062 295.8 365.19L356.813 365.509L357.664 383.345C357.664 383.345 370.517 388.89 381.714 394.375C386.614 396.624 391.378 399.16 395.98 401.971C399.519 404.888 402.3 414.292 399.033 415.325Z" fill="#EBEBEB"/>
<path d="M399.413 415.69C396.055 416.753 300.251 415.021 296.635 412.651C295.253 411.755 294.083 396.957 295.693 380.641L357.466 381.826C357.466 381.826 392.652 398.887 396.344 401.925C400.036 404.964 402.786 414.702 399.413 415.69Z" fill="#C7C7C7"/>
<path d="M398.122 411.831C382.063 411.147 317.252 409.902 301.33 410.449C301.193 410.449 301.193 410.54 301.33 410.555C317.221 411.573 382.048 412.302 398.106 412.074C398.456 412.089 398.456 411.846 398.122 411.831Z" fill="#263238"/>
<path d="M390.237 398.37C388.453 398.291 386.672 398.583 385.007 399.226C383.341 399.869 381.827 400.85 380.559 402.108C378.263 404.356 376.924 407.404 376.822 410.616C376.822 410.722 376.989 410.722 377.004 410.616C377.607 407.444 379.223 404.553 381.609 402.378C383.996 400.203 387.023 398.861 390.237 398.553C390.358 398.553 390.373 398.37 390.237 398.37Z" fill="#263238"/>
<path d="M362.465 383.527C356.038 383.33 348.548 385.457 344.461 390.653C344.31 390.85 344.583 391.078 344.781 390.972C350.456 388.124 356.42 385.893 362.571 384.317C362.657 384.284 362.729 384.223 362.775 384.143C362.822 384.064 362.841 383.972 362.828 383.881C362.816 383.789 362.773 383.705 362.708 383.641C362.642 383.577 362.556 383.537 362.465 383.527Z" fill="#263238"/>
<path d="M367.402 385.563C360.976 385.35 353.471 387.493 349.384 392.673C349.232 392.871 349.521 393.099 349.703 393.007C355.378 390.159 361.342 387.928 367.493 386.353C367.598 386.341 367.694 386.288 367.759 386.205C367.825 386.123 367.855 386.017 367.843 385.912C367.831 385.808 367.778 385.712 367.695 385.647C367.612 385.581 367.507 385.551 367.402 385.563Z" fill="#263238"/>
<path d="M372.325 387.584C365.898 387.371 358.408 389.513 354.321 394.694C354.154 394.891 354.443 395.119 354.641 395.028C360.309 392.176 366.268 389.945 372.416 388.374C372.521 388.362 372.616 388.308 372.682 388.226C372.747 388.143 372.777 388.038 372.765 387.933C372.753 387.828 372.7 387.733 372.617 387.667C372.535 387.602 372.429 387.572 372.325 387.584Z" fill="#263238"/>
<path d="M377.247 389.604C370.821 389.407 363.331 391.534 359.244 396.714C359.092 396.927 359.365 397.14 359.563 397.049C365.238 394.202 371.203 391.971 377.353 390.394C377.439 390.361 377.511 390.3 377.558 390.22C377.604 390.141 377.623 390.049 377.611 389.958C377.598 389.866 377.556 389.782 377.49 389.718C377.424 389.654 377.339 389.614 377.247 389.604Z" fill="#263238"/>
<path d="M360.52 381.795H294.63C294.63 381.795 295.724 258.462 290.513 251.625C283.57 242.51 184.803 241.553 163.974 211.866C145.256 185.188 161.771 147.966 161.771 147.966L236.579 146.644C234.8 154.643 232.387 162.487 229.362 170.102C229.362 170.102 319.257 187.801 344.173 215.68C360.991 234.549 360.52 381.795 360.52 381.795Z" fill="#263238"/>
<path d="M242.58 165.088C240.428 165.556 238.323 166.217 236.29 167.063C234.133 167.868 232.021 168.765 229.94 169.752C225.854 171.719 221.878 173.905 218.029 176.3C217.907 176.376 218.029 176.543 218.135 176.483C222.207 174.432 226.415 172.593 230.623 170.831L236.7 168.309C238.736 167.458 240.894 166.79 242.778 165.681C243.021 165.544 242.884 165.027 242.58 165.088Z" fill="#37474F"/>
<path d="M238.326 146.568C237.43 149.972 236.624 153.405 235.622 156.778C235.151 158.297 234.695 159.816 234.103 161.336C233.586 162.597 232.826 164.04 231.353 164.374C229.651 164.678 229.18 163.22 229.332 161.822C229.484 160.424 229.925 158.692 230.259 157.158C230.593 155.623 231.003 153.633 231.353 151.856C231.52 150.959 231.702 150.078 231.869 149.182C231.869 148.969 232.097 147.267 232.219 146.781C232.219 146.781 232.219 146.781 232.31 146.781C232.336 146.781 232.361 146.772 232.38 146.756C232.4 146.739 232.412 146.716 232.416 146.69C232.44 146.651 232.453 146.607 232.453 146.561C232.453 146.515 232.44 146.47 232.416 146.432C232.391 146.417 232.362 146.409 232.333 146.409C232.303 146.409 232.274 146.417 232.249 146.432C231.93 146.599 231.9 147.039 231.793 147.374C231.505 148.224 231.216 149.09 230.958 149.956C230.456 151.582 229.985 153.208 229.545 154.848L228.269 159.771C227.827 160.98 227.696 162.281 227.889 163.554C228.032 164.161 228.369 164.706 228.849 165.106C229.328 165.506 229.924 165.739 230.547 165.772C230.481 165.88 230.42 165.992 230.365 166.106C230.213 166.44 230.092 166.805 229.97 167.139C229.849 167.473 229.712 167.838 229.606 168.203C229.547 168.375 229.511 168.553 229.499 168.734C229.499 168.932 229.499 169.129 229.499 169.327C229.493 169.392 229.508 169.457 229.543 169.512C229.579 169.567 229.631 169.608 229.693 169.629C229.754 169.65 229.821 169.65 229.883 169.628C229.944 169.606 229.996 169.564 230.031 169.509C230.122 169.342 230.244 169.205 230.35 169.038C230.451 168.858 230.538 168.67 230.608 168.476C230.715 168.127 230.821 167.793 230.912 167.443C231.003 167.094 231.11 166.759 231.186 166.41C231.262 166.061 231.186 165.985 231.186 165.772C231.896 165.714 232.578 165.468 233.161 165.058C234.12 164.258 234.836 163.206 235.227 162.019C235.759 160.606 236.184 159.133 236.594 157.689C237.689 154.104 238.462 150.428 238.903 146.705C238.894 146.642 238.866 146.583 238.823 146.536C238.78 146.489 238.723 146.455 238.661 146.441C238.599 146.426 238.534 146.43 238.474 146.453C238.414 146.476 238.363 146.516 238.326 146.568Z" fill="#37474F"/>
<path d="M193.751 154.393C193.417 156.079 193.204 157.796 192.794 159.467C192.384 161.138 191.928 162.749 191.366 164.344C190.853 165.893 190.133 167.365 189.224 168.719C188.273 169.986 187.142 171.107 185.866 172.046C183.435 173.937 180.71 175.416 177.799 176.422C176.337 176.929 174.845 177.345 173.332 177.668C172.542 177.835 171.813 177.972 170.947 178.063C170.284 178.076 169.629 178.215 169.018 178.473C168.961 178.509 168.914 178.558 168.882 178.616C168.85 178.675 168.833 178.74 168.833 178.807C168.833 178.874 168.85 178.94 168.882 178.998C168.914 179.056 168.961 179.106 169.018 179.141C170.163 179.504 171.385 179.556 172.557 179.293C173.837 179.191 175.107 178.988 176.356 178.686C178.884 178.051 181.309 177.059 183.557 175.738C185.847 174.499 187.904 172.869 189.634 170.922C191.245 168.878 192.368 166.493 192.915 163.949C193.745 160.843 194.134 157.637 194.07 154.423C194.063 154.388 194.045 154.355 194.018 154.331C193.992 154.307 193.958 154.292 193.922 154.289C193.886 154.285 193.85 154.294 193.819 154.312C193.788 154.331 193.765 154.359 193.751 154.393Z" fill="#37474F"/>
<path d="M304.14 295.881C303.604 285.246 302.849 274.612 301.877 263.977C301.634 261.364 301.406 258.751 301.117 256.137C300.947 254.104 300.529 252.099 299.871 250.167C298.352 246.171 295.07 244.09 291.09 243.072C286.38 241.811 281.503 241.036 276.703 240.2C271.902 239.365 266.873 238.575 261.951 237.83C251.984 236.311 241.988 234.913 232.067 233.121C222.165 231.426 212.382 229.102 202.775 226.162C193.979 223.382 184.955 219.979 177.951 213.765C162.895 200.396 162.606 178.275 164.688 159.801C164.976 157.188 165.326 154.59 165.675 151.977C165.675 151.84 165.478 151.795 165.462 151.977C164.141 162.384 162.606 172.852 163.518 183.35C164.077 192.039 166.843 200.442 171.555 207.764C176.614 215.224 184.195 220.101 192.384 223.519C201.426 227.14 210.77 229.957 220.308 231.936C240.058 236.296 260.112 238.286 279.939 241.932C282.385 242.373 284.815 242.844 287.246 243.36C289.512 243.719 291.729 244.336 293.855 245.199C298.413 247.28 299.522 251.686 300.023 256.229C301.193 266.787 301.953 277.392 302.591 287.996C303.867 309.342 304.429 330.809 304.11 352.2L303.973 360.131C303.973 360.359 304.323 360.343 304.323 360.131C305.265 338.739 305.234 317.288 304.14 295.881Z" fill="#37474F"/>
<path d="M358.074 371.1C356.225 370.794 354.357 370.616 352.483 370.568C350.508 370.431 348.548 370.295 346.588 370.188C342.714 369.991 338.84 369.839 334.966 369.778C327.172 369.656 319.378 369.58 311.57 369.672C307.513 369.672 298.777 369.778 298.306 369.991C298.063 370.082 298.124 370.507 298.306 370.522C306.039 371.176 313.788 371.434 321.536 371.707C329.284 371.981 337.017 372.239 344.765 372.148C346.907 372.148 349.05 372.027 351.192 371.981C353.455 372.029 355.72 371.917 357.968 371.647C358.226 371.616 358.332 371.161 358.074 371.1Z" fill="#37474F"/>
<path d="M294.736 319.931C294.964 311.119 294.949 302.292 294.812 293.481C294.675 284.669 294.341 275.842 293.764 267.03C293.485 262.593 292.922 258.178 292.077 253.813C291.945 253.244 291.772 252.686 291.561 252.142C291.449 251.829 291.295 251.533 291.105 251.261C290.904 250.998 290.669 250.763 290.406 250.562C289.473 249.883 288.45 249.336 287.368 248.936C285.273 248.156 283.126 247.526 280.941 247.052C272.297 245.142 263.538 243.798 254.719 243.026C259.079 243.74 263.424 244.454 267.739 245.305C272.054 246.156 276.383 246.992 280.622 248.116C282.73 248.655 284.804 249.314 286.836 250.091C287.809 250.445 288.729 250.931 289.571 251.534C289.92 251.8 290.179 252.165 290.315 252.582C290.499 253.076 290.642 253.584 290.74 254.102C291.532 258.398 292.04 262.743 292.26 267.106C292.959 275.873 293.278 284.684 293.673 293.481L294.736 319.931Z" fill="#37474F"/>
<path d="M330.196 204.513C322.678 199.759 314.769 195.653 306.556 192.237C298.382 188.713 290.011 185.689 281.579 182.848C273.148 180.007 264.579 177.698 256.041 175.419C247.502 173.14 238.751 171.287 230.046 169.57C234.315 170.77 238.645 171.788 242.914 173.004C247.183 174.219 251.483 175.298 255.737 176.528C264.26 178.959 272.783 181.435 281.169 184.276C289.555 187.117 297.881 190.019 306.176 193.286C310.293 194.927 314.365 196.658 318.33 198.527C322.296 200.396 326.322 202.34 330.196 204.513Z" fill="#37474F"/>
<path d="M223.042 76.0141C228.861 104.105 241.106 139.823 250.997 147.161C258.973 153.086 301.254 164.161 303.609 164.465C309.473 165.179 322.113 123.248 315.899 122.169C307.695 120.741 271.841 117.961 269.851 115.803C267.86 113.646 254.886 95.2935 240.332 74.1758C230.213 59.5909 219.427 58.573 223.042 76.0141Z" fill="#AD6359"/>
<path d="M298.96 162.08C304.307 164.973 309.857 167.477 315.565 169.57C320.123 170.998 333.31 174.736 335.316 169.889C336.728 166.577 329.239 163.463 323.967 161.138C321.202 159.908 317.814 156.915 318.68 155.061C320.199 151.947 327.309 155.259 331.988 158.1C341.104 163.599 353.015 173.444 358.697 168.917C360.854 167.2 358.469 163.964 354.944 160.743C360.687 164.526 366.84 167.656 369.301 165.848C369.94 165.389 370.376 164.701 370.518 163.927C370.659 163.154 370.496 162.356 370.061 161.7C370.794 162.068 371.621 162.207 372.433 162.098C373.246 161.99 374.008 161.639 374.619 161.093C376.563 159.148 375.697 156.201 373.692 153.162C374.049 153.131 374.394 153.016 374.697 152.826C375.001 152.635 375.255 152.376 375.439 152.068C379.572 145.991 359.882 128.064 352.985 126.241C332.672 120.954 310.916 122.26 310.916 122.26C302.773 128.611 298.945 162.065 298.96 162.08Z" fill="#AD6359"/>
<path d="M329.375 143.925C334.22 144.795 338.824 146.685 342.881 149.47C347.986 152.995 351.329 157.067 355.598 161.184C355.704 161.29 355.598 161.472 355.431 161.366C353.395 159.406 344.978 152.023 342.805 150.336C338.863 147.233 334.265 145.071 329.36 144.016C329.36 144.016 329.33 143.925 329.375 143.925Z" fill="#263238"/>
<path d="M333.371 135.356C338.799 136.776 344.068 138.746 349.095 141.236C354.489 144.138 358.651 148.756 362.769 153.208C365.23 155.866 367.645 158.601 369.985 161.381C370.076 161.488 369.985 161.67 369.818 161.548C365.655 156.96 361.361 152.499 356.935 148.164C352.85 144.111 348.001 140.909 342.669 138.744C339.63 137.499 336.485 136.496 333.356 135.508C333.295 135.432 333.31 135.326 333.371 135.356Z" fill="#263238"/>
<path d="M339.266 127.897C344.462 129.082 348.989 130.1 353.547 132.986C358.652 136.541 363.291 140.721 367.357 145.429C369.59 147.921 371.747 150.473 373.859 153.025C373.935 153.132 373.753 153.284 373.677 153.177C368.835 147.487 363.633 142.113 358.104 137.088C355.504 134.662 352.548 132.649 349.338 131.118C346.075 129.751 342.7 128.668 339.25 127.882C339.25 127.882 339.235 127.897 339.266 127.897Z" fill="#263238"/>
<path d="M313.469 120.635L297.228 165.544C297.228 165.544 252.683 152.402 246.788 144.669C240.894 136.936 226.066 98.1042 222.875 77.3055C219.685 56.5069 230.077 60.7152 238.934 71.35C247.791 81.9848 269.942 114.451 270.701 114.953C271.461 115.454 313.469 120.635 313.469 120.635Z" fill="#FCB257"/>
<path d="M290.452 154.909C291.044 153.39 291.698 151.871 292.26 150.351C293.435 147.212 294.599 144.067 295.754 140.917C296.924 137.772 298.063 134.612 299.203 131.452C300.342 128.292 301.33 125.056 302.5 121.911C302.502 121.885 302.496 121.86 302.483 121.837C302.47 121.815 302.45 121.798 302.426 121.788C302.403 121.778 302.377 121.775 302.351 121.781C302.326 121.787 302.304 121.8 302.287 121.82C300.965 124.858 299.537 127.897 298.246 131.042C296.954 134.187 295.708 137.392 294.523 140.598C293.338 143.803 292.245 146.918 291.166 150.093C290.634 151.612 290.209 153.329 289.647 154.94C289.084 156.55 288.644 157.978 288.279 159.634C288.279 159.658 288.289 159.681 288.306 159.699C288.323 159.716 288.346 159.725 288.37 159.725C288.395 159.725 288.418 159.716 288.435 159.699C288.452 159.681 288.462 159.658 288.462 159.634C289.252 158.16 289.814 156.504 290.452 154.909Z" fill="#263238"/>
<path d="M277.812 159.239C265.019 154.788 250.04 148.878 246.788 144.609C240.894 136.876 226.066 98.0586 222.875 77.2599C221.356 67.3847 222.875 63.1612 225.914 62.5991L277.812 159.239Z" fill="#263238"/>
<path d="M247.153 162.84C245.056 164.891 154.98 174.265 154.478 173.657C153.293 172.031 170.127 87.4997 206.133 58.3755C212.483 53.2404 223.088 55.337 227.889 58.4819C230.289 60.0011 237.004 72.1552 238.827 82.9571C240.651 93.7591 248.444 161.548 247.153 162.84Z" fill="#FCB257"/>
<path d="M197.792 64.483C179.561 79.6756 132.54 138.76 143.403 152.175C154.266 165.59 224.85 158.252 245.193 151.445C251.27 149.425 233.966 110.972 227.327 109.301C221.812 107.903 191.503 117.429 190.864 115.667C190.226 113.904 198.172 102.54 208.184 78.5057C219.837 50.7793 205.814 57.783 197.792 64.483Z" fill="#AD6359"/>
<path d="M257.317 101.34C271.491 101.143 275.153 103.27 287.033 96.7824C294.812 92.4981 300.889 95.643 295.784 103.346C287.444 115.955 269.213 120.057 262.482 119.632L257.317 101.34Z" fill="#AD6359"/>
<path d="M218.652 110.106C218.652 110.106 235.364 103.376 250.465 101.674C260.887 100.505 283.889 100.474 302.712 125.496C307.179 131.421 309.336 143.044 298.519 136.01C290.832 131.011 287.474 125.512 282.461 123.415C282.461 123.415 283.463 138.532 277.341 142.77C272.002 146.479 266.407 149.804 260.598 152.721C259.818 151.784 259.102 150.794 258.456 149.759C258.456 149.759 252.379 153.177 241.987 150.868L218.652 110.106Z" fill="#AD6359"/>
<path d="M260.598 102.145C265.156 105.275 274.591 112.066 280.349 120.377C286.821 129.492 296.787 148.939 289.981 153.648C284.983 157.097 280.516 150.017 280.516 150.017C280.516 150.017 282.947 158.905 277.751 161.032C273.026 162.977 269.896 157.294 269.896 157.294C269.896 157.294 270.443 162.946 265.521 163.934C259.611 165.119 259.444 153.086 252.394 149.121C250.875 148.164 260.598 102.145 260.598 102.145Z" fill="#AD6359"/>
<path d="M269.592 125.527C275.66 132.287 279.529 140.733 280.683 149.744C280.683 149.987 280.531 150.124 280.47 149.911C277.811 141.394 274.127 133.232 269.501 125.603C269.501 125.603 269.547 125.496 269.592 125.527Z" fill="#263238"/>
<path d="M260.598 132.318C263.531 135.797 269.714 146.888 270.23 157.158C270.23 157.386 270.063 157.522 270.018 157.31C267.805 148.665 264.614 140.301 260.507 132.379C260.507 132.379 260.492 132.272 260.598 132.318Z" fill="#263238"/>
<path d="M282.476 123.324C286.851 125.223 289.525 127.882 293.019 130.92C294.732 132.494 296.527 133.975 298.398 135.356C300.13 136.587 302.667 138.395 304.824 137.119C305.336 136.709 305.73 136.172 305.968 135.561C306.205 134.95 306.277 134.287 306.176 133.64C306.092 132.195 305.698 130.786 305.022 129.507C305.022 129.507 305.022 129.386 305.143 129.507C305.82 130.623 306.331 131.831 306.662 133.093C307.026 134.265 307.026 135.521 306.662 136.693C305.69 139.109 302.697 139.079 300.692 138.121C299.503 137.511 298.378 136.783 297.334 135.949C296.316 135.174 295.329 134.354 294.296 133.518C292.321 131.786 290.437 129.948 288.492 128.201C286.564 126.556 284.534 125.034 282.415 123.643C282.309 123.415 282.4 123.293 282.476 123.324Z" fill="#263238"/>
<path d="M289.981 140.476C287.826 134.629 285.288 128.929 282.385 123.415C282.385 123.415 282.385 123.278 282.491 123.339C285.529 127.137 290.178 136.754 291.151 139.777C292.354 142.941 292.902 146.316 292.761 149.698C292.169 154.438 288.917 154.94 287.732 155.031C286.316 155.106 284.916 154.693 283.767 153.861C282.44 152.798 281.343 151.474 280.546 149.972C280.546 149.896 280.546 149.82 280.653 149.896C282.066 151.962 284.557 154.15 287.17 154.134C287.749 154.15 288.325 154.05 288.864 153.842C289.404 153.633 289.897 153.319 290.315 152.919C291.15 151.862 291.586 150.544 291.546 149.197C291.527 146.222 290.998 143.272 289.981 140.476Z" fill="#263238"/>
<path d="M270.155 157.158C270.747 157.811 271.856 159.953 273.968 160.637C274.707 160.937 275.507 161.054 276.301 160.977C277.095 160.9 277.858 160.632 278.526 160.196C279.777 159.178 280.584 157.712 280.774 156.109C280.84 154.08 280.754 152.049 280.516 150.032C280.516 149.926 280.622 149.896 280.653 150.032C281.179 152.193 281.384 154.42 281.26 156.641C281.192 157.524 280.943 158.384 280.531 159.168C280.118 159.952 279.549 160.643 278.86 161.199C278.132 161.729 277.271 162.048 276.373 162.121C275.475 162.193 274.574 162.016 273.77 161.609C272.113 160.588 270.783 159.111 269.942 157.355C269.942 157.355 270.124 157.127 270.155 157.158Z" fill="#263238"/>
<path d="M246.925 151.612C249.553 151.653 252.178 151.439 254.764 150.974C254.764 150.974 254.932 151.202 254.856 151.233C253.576 151.632 252.257 151.892 250.921 152.007C249.583 152.111 248.238 152.024 246.925 151.749C246.925 151.734 246.925 151.597 246.925 151.612Z" fill="#263238"/>
<path d="M216.312 109.605L235.576 155.973C235.576 155.973 147.247 169.008 141.291 150.61C135.336 132.212 179.273 79.554 195.605 65.3945C211.937 51.2351 216.312 58.7098 211.01 73.1124C205.708 87.5149 192.065 115.165 192.444 115.165C192.824 115.165 216.312 109.605 216.312 109.605Z" fill="#FCB257"/>
<path d="M216.358 109.529C208.842 110.623 201.439 112.387 194.237 114.801C186.999 117.07 179.898 119.753 172.968 122.838C168.987 124.63 165.143 126.605 161.254 128.58C161.117 128.656 161.254 128.839 161.391 128.778C164.9 127.168 168.516 125.739 172.102 124.342C175.687 122.944 179.121 121.607 182.736 120.331C189.826 117.779 197.012 115.5 204.295 113.494C208.382 112.37 212.484 111.291 216.54 110.076C216.722 109.985 216.677 109.483 216.358 109.529Z" fill="#263238"/>
<path d="M218.94 149.394C218.424 147.875 217.968 146.356 217.421 144.837L214.033 135.356C212.894 132.196 211.754 129.036 210.569 125.891C209.384 122.746 208.108 119.632 206.984 116.472C206.991 116.454 206.993 116.434 206.99 116.414C206.988 116.395 206.981 116.376 206.97 116.36C206.958 116.344 206.944 116.331 206.926 116.322C206.909 116.313 206.889 116.308 206.87 116.308C206.85 116.308 206.831 116.313 206.814 116.322C206.796 116.331 206.781 116.344 206.77 116.36C206.759 116.376 206.752 116.395 206.749 116.414C206.747 116.434 206.749 116.454 206.756 116.472C207.728 119.678 208.579 122.929 209.597 126.134C210.615 129.34 211.724 132.622 212.878 135.843C214.033 139.063 215.188 142.147 216.418 145.277C217.026 146.796 217.74 148.316 218.409 149.926C219.077 151.536 219.639 152.965 220.384 154.484C220.384 154.575 220.581 154.484 220.551 154.408C220.11 152.661 219.487 151.05 218.94 149.394Z" fill="#263238"/>
<path d="M236.381 156.656C236.123 155.927 235.88 155.137 235.637 154.469C235.546 154.226 235.12 154.256 235.166 154.469L235.439 156.307C230.441 156.565 225.473 157.325 220.49 157.826C215.507 158.328 210.174 158.814 204.994 159.178C194.799 159.862 184.575 160.12 174.35 159.862C168.501 159.71 162.682 159.3 156.848 159.042C156.812 159.042 156.777 159.056 156.752 159.082C156.726 159.107 156.712 159.142 156.712 159.178C156.712 159.215 156.726 159.249 156.752 159.275C156.777 159.301 156.812 159.315 156.848 159.315C167.105 160.887 177.487 161.482 187.856 161.093C198.218 160.941 208.564 160.227 218.88 159.254C224.656 158.851 230.407 158.141 236.108 157.127C236.198 157.089 236.274 157.022 236.323 156.937C236.372 156.852 236.393 156.754 236.381 156.656Z" fill="#263238"/>
<path d="M203.322 95.1872C202.487 96.3114 201.651 97.4357 200.922 98.6207L200.451 99.4411C201.742 96.3114 202.943 93.1362 204.173 89.9761C204.173 89.8698 204.052 89.809 204.021 89.9761C201.803 94.4579 199.463 98.879 197.428 103.437C196.41 105.655 195.422 107.888 194.389 110.106C193.873 111.261 193.356 112.4 192.87 113.555C192.338 114.524 191.979 115.578 191.806 116.669C191.806 116.776 191.943 116.806 192.019 116.745C192.782 115.894 193.385 114.911 193.797 113.844C194.359 112.719 194.89 111.595 195.437 110.471C196.531 108.222 197.595 105.959 198.628 103.68C198.886 103.118 199.129 102.54 199.372 101.978C200.056 101.006 200.724 100.034 201.363 99.0461C202.001 98.0586 202.775 96.6001 203.414 95.3543C203.489 95.2024 203.383 95.1112 203.322 95.1872Z" fill="#263238"/>
<path d="M225.655 75.1026C220.338 75.3913 212.985 66.063 210.645 59.1504C210.493 58.6794 215.37 41.7245 215.978 38.2606C216.099 37.5465 236.776 47.3761 236.776 47.3761C234.765 51.4818 233.265 55.8188 232.31 60.2898C232.295 60.8216 230.836 74.8139 225.655 75.1026Z" fill="#AD6359"/>
<path d="M236.852 47.3913C236.852 47.4977 236.594 47.8927 236.305 48.546C235.804 49.655 234.999 51.4629 234.254 53.5595C233.442 55.7459 232.817 57.9975 232.386 60.2898C232.386 60.4569 232.386 60.624 232.386 60.776C232.386 61.0646 232.295 61.4445 232.234 61.9002C231.515 61.8595 230.8 61.7732 230.092 61.642C218.317 59.2567 216.92 44.0337 216.813 38.2758L217.178 38.4125C217.74 38.5948 218.454 38.8835 219.335 39.2481L220.004 39.5367C221.386 40.1293 223.042 40.8737 224.759 41.6333L226.461 42.4081L230.077 44.0793C230.563 44.3224 231.064 44.5503 231.596 44.7478L233.115 45.4315C233.337 45.5502 233.565 45.6567 233.799 45.7505L234.103 45.9024L235.819 46.7228L236.64 47.1026L236.989 47.2698L236.852 47.3913Z" fill="#263238"/>
<path d="M218.94 12.0989C214.732 19.1027 213.274 42.0131 217.421 48.2573C223.498 57.2817 236.138 61.1558 244.509 53.2556C252.622 45.6593 253.99 15.7148 249.067 9.75929C241.851 0.993166 225.169 1.73759 218.94 12.0989Z" fill="#AD6359"/>
<path d="M237.187 30.33C237.187 30.33 237.05 30.33 237.05 30.4516C237.05 31.9708 236.761 33.7787 235.348 34.2345V34.3257C237.08 34.0826 237.415 31.7277 237.187 30.33Z" fill="#263238"/>
<path d="M235.865 28.5981C233.388 28.3094 232.993 33.2926 235.288 33.5508C237.582 33.8091 237.946 28.8108 235.865 28.5981Z" fill="#263238"/>
<path d="M246.089 31.2264C246.089 31.2264 246.211 31.2264 246.196 31.3631C246.029 32.8824 246.089 34.6903 247.442 35.3132C247.442 35.3132 247.442 35.4195 247.442 35.4043C245.74 35.0245 245.679 32.6545 246.089 31.2264Z" fill="#263238"/>
<path d="M247.594 29.7224C250.085 29.7224 249.888 34.7207 247.594 34.7055C245.299 34.6903 245.497 29.7072 247.594 29.7224Z" fill="#263238"/>
<path d="M234.771 26.3648C235.445 26.4839 236.124 26.5651 236.807 26.6078C237.513 26.7954 238.261 26.7419 238.934 26.4559C239.129 26.3292 239.276 26.1402 239.35 25.9196C239.425 25.699 239.423 25.4597 239.344 25.2405C239.13 24.8255 238.808 24.4756 238.413 24.2271C238.017 23.9786 237.562 23.8407 237.095 23.8276C236.156 23.6516 235.185 23.836 234.376 24.3441C234.197 24.4686 234.057 24.6427 233.975 24.845C233.893 25.0473 233.872 25.2692 233.914 25.4834C233.956 25.6977 234.059 25.8952 234.211 26.0517C234.363 26.2082 234.558 26.317 234.771 26.3648Z" fill="#263238"/>
<path d="M249.964 26.6686C249.303 26.4846 248.653 26.2614 248.019 26.0001C247.3 25.8624 246.647 25.488 246.165 24.9367C246.05 24.7349 246.004 24.5009 246.034 24.2704C246.064 24.04 246.169 23.8257 246.333 23.6605C246.708 23.3831 247.151 23.2103 247.615 23.1596C248.08 23.1089 248.549 23.1821 248.976 23.3718C249.895 23.6305 250.685 24.2205 251.194 25.0278C251.307 25.2167 251.36 25.4346 251.349 25.6541C251.337 25.8735 251.26 26.0845 251.128 26.2603C250.996 26.4361 250.815 26.5687 250.608 26.6414C250.401 26.7141 250.176 26.7236 249.964 26.6686Z" fill="#263238"/>
<path d="M234.619 44.4743C234.968 44.8541 235.288 45.3859 235.85 45.477C236.424 45.5129 236.999 45.4248 237.536 45.2188C237.536 45.2188 237.642 45.2188 237.536 45.3099C237.29 45.5916 236.972 45.8021 236.617 45.9196C236.262 46.0372 235.881 46.0575 235.515 45.9784C235.197 45.8694 234.92 45.6652 234.722 45.3935C234.523 45.1217 234.413 44.7955 234.406 44.4591C234.452 44.4288 234.573 44.4136 234.619 44.4743Z" fill="#263238"/>
<path d="M236.609 39.9773C236.953 40.619 237.427 41.1825 237.999 41.6323C238.572 42.082 239.232 42.4083 239.936 42.5905C240.55 42.7586 241.185 42.8353 241.82 42.8183H242.185H242.519C242.602 42.8093 242.68 42.7731 242.74 42.7155C242.801 42.6578 242.841 42.5818 242.853 42.4993C242.861 42.4489 242.861 42.3977 242.853 42.3474V42.2106C242.975 41.0256 243.005 39.1721 243.005 39.1721C243.416 39.4304 245.558 40.6002 245.573 39.9773C245.848 34.6115 245.584 29.2316 244.783 23.9188C244.773 23.8884 244.754 23.8619 244.728 23.8431C244.702 23.8244 244.671 23.8143 244.639 23.8143C244.607 23.8143 244.575 23.8244 244.55 23.8431C244.524 23.8619 244.504 23.8884 244.494 23.9188C244.206 28.8715 244.783 33.8547 244.57 38.8379C243.811 38.4122 242.999 38.0903 242.155 37.8807C241.987 37.8807 242.155 41.3902 242.063 41.922C241.084 41.9403 240.11 41.7629 239.2 41.4003C238.289 41.0377 237.46 40.4971 236.761 39.8102C236.655 39.7494 236.533 39.8406 236.609 39.9773Z" fill="#263238"/>
<path d="M217.36 28.2942C222.571 29.0994 225.048 19.8016 225.048 19.8016C225.048 19.8016 234.163 19.8015 236.549 13.208C236.549 13.208 244.145 19.9535 251.225 18.5709C258.304 17.1884 258.639 8.75654 258.122 7.03978C256.967 3.08971 250.693 6.94863 250.693 6.94863C245.713 3.02933 239.712 0.624513 233.404 0.0208146C225.519 -0.41977 220.49 6.28015 220.49 6.28015C220.49 6.28015 216.19 6.50804 214.413 9.22752C212.635 11.947 214.048 27.7929 217.36 28.2942Z" fill="#263238"/>
<path d="M222.936 19.5433C229.697 21.5335 234.999 17.6594 237.035 11.2026H237.156C236.002 17.2796 229.165 23.3566 222.814 19.8168C222.795 19.7928 222.782 19.7638 222.778 19.733C222.773 19.7022 222.778 19.6708 222.791 19.6424C222.803 19.614 222.823 19.5896 222.849 19.5721C222.875 19.5546 222.905 19.5446 222.936 19.5433Z" fill="#263238"/>
<path d="M220.703 6.18903C220.703 6.18903 220.809 6.31056 220.703 6.32575C218.636 6.91826 216.312 7.25251 214.626 8.80215C212.651 10.6708 212.559 13.5118 212.803 16.0338C213.167 19.9231 214.322 25.1494 217.36 27.8233C217.543 27.9752 217.284 28.2335 217.117 28.0815C213.471 25.043 212.119 18.4039 212.24 13.9069C212.453 8.86292 215.963 6.53846 220.703 6.18903Z" fill="#263238"/>
<path d="M243.887 16.1857C245.321 17.448 247.099 18.2538 248.993 18.5001C250.887 18.7464 252.812 18.422 254.521 17.5683C258.608 15.3502 258.578 10.6708 257.56 6.6448C257.56 6.4473 257.803 6.28018 257.879 6.47768C259.489 10.1391 258.851 15.2438 255.403 17.6746C253.568 18.7908 251.423 19.2884 249.284 19.0943C247.146 18.9001 245.126 18.0243 243.522 16.5959C243.233 16.3681 243.598 15.9579 243.887 16.1857Z" fill="#263238"/>
<path d="M232.629 39.1113C231.314 38.8398 230.102 38.2045 229.13 37.2778C228.158 36.351 227.466 35.1701 227.133 33.8694C226.799 32.5687 226.838 31.2006 227.244 29.9207C227.65 28.6408 228.407 27.5006 229.429 26.6298C230.451 25.7591 231.697 25.1929 233.025 24.9956C234.354 24.7983 235.71 24.9778 236.942 25.5138C238.173 26.0498 239.229 26.9207 239.989 28.0273C240.75 29.134 241.184 30.4319 241.243 31.7733C241.33 33.6731 240.658 35.5296 239.376 36.9342C238.094 38.3388 236.306 39.1766 234.406 39.2633C233.81 39.2896 233.212 39.2386 232.629 39.1113ZM235.348 26.0153C234.848 25.9151 234.339 25.8743 233.829 25.8938C232.253 25.9623 230.762 26.6294 229.66 27.7591C228.559 28.8888 227.929 30.3961 227.901 31.9737C227.872 33.5513 228.446 35.0805 229.506 36.2496C230.565 37.4186 232.031 38.1395 233.604 38.2654C235.177 38.3912 236.738 37.9124 237.97 36.9267C239.203 35.941 240.012 34.5225 240.235 32.9604C240.457 31.3983 240.076 29.8101 239.168 28.5197C238.26 27.2292 236.894 26.3336 235.348 26.0153Z" fill="#455A64"/>
<path d="M249.022 40.4635C246.348 39.9166 244.464 36.6501 244.798 32.8672C244.93 31.085 245.609 29.3871 246.743 28.0056C247.211 27.4114 247.82 26.9432 248.515 26.6431C249.209 26.3431 249.968 26.2208 250.722 26.2871C251.475 26.3534 252.201 26.6064 252.832 27.0231C253.464 27.4398 253.982 28.0072 254.339 28.674C255.219 30.2336 255.59 32.0285 255.403 33.8091C255.053 37.744 252.364 40.7369 249.462 40.4787L249.022 40.4635ZM251.027 27.2915H250.662C250.047 27.2673 249.436 27.3929 248.88 27.6575C248.324 27.9222 247.841 28.318 247.472 28.8108C246.463 30.0345 245.863 31.5433 245.755 33.1255C245.467 36.5286 247.168 39.476 249.584 39.6887C251.999 39.9014 254.142 37.2882 254.476 33.8851C254.651 32.3063 254.327 30.7123 253.549 29.3273C253.293 28.8312 252.937 28.3939 252.503 28.0433C252.069 27.6928 251.566 27.4367 251.027 27.2915Z" fill="#455A64"/>
<path d="M240.939 32.5785L240.392 31.8037C241.547 30.9833 244.16 29.9806 245.74 32.0012L244.98 32.5937C243.568 30.7706 241.046 32.5026 240.939 32.5785Z" fill="#455A64"/>
<path d="M208.944 31.6366L208.138 31.12C208.382 30.7402 210.539 27.4282 212.696 27.2611C214.854 27.094 227.403 29.4488 227.889 29.54L227.706 30.482C224.075 29.8135 214.261 28.1119 212.711 28.2183C211.162 28.3246 209.536 30.725 208.944 31.6366Z" fill="#455A64"/>
<path d="M219.396 31.1504C219.396 31.1504 216.023 22.8856 212.392 23.9187C208.761 24.9518 210.144 36.0728 213.623 38.4125C214.049 38.7354 214.536 38.9689 215.054 39.0989C215.573 39.229 216.112 39.2528 216.64 39.1691C217.168 39.0854 217.673 38.8958 218.126 38.6117C218.579 38.3276 218.969 37.955 219.275 37.5161L219.396 31.1504Z" fill="#AD6359"/>
<path d="M212.863 27.1244C212.863 27.1244 212.772 27.1244 212.863 27.2155C215.279 28.9019 216.115 31.6822 216.51 34.4624C216.415 34.1634 216.256 33.8884 216.046 33.6559C215.835 33.4234 215.577 33.239 215.289 33.1151C215.001 32.9911 214.689 32.9306 214.375 32.9377C214.062 32.9447 213.753 33.0191 213.471 33.1558C213.471 33.1558 213.471 33.3078 213.471 33.323C213.97 33.2809 214.47 33.394 214.903 33.6469C215.335 33.8998 215.679 34.2802 215.887 34.7359C216.227 35.5073 216.486 36.3117 216.661 37.1363C216.661 37.4098 217.193 37.3794 217.163 37.1363C218.059 33.642 216.434 28.2942 212.863 27.1244Z" fill="#263238"/>
<path d="M232.188 62.2345L224.911 74.3885L211.45 55.3978L206.042 59.9556C206.042 59.9556 217.588 88.5328 217.877 87.3782L225.017 77.0624L231.474 86.0716L233.996 66.4732L232.188 62.2345Z" fill="#EBEBEB"/>
<path d="M233.252 76.318C233.556 73.0668 233.966 69.8004 234.118 66.534C234.118 66.4276 233.951 66.3365 233.905 66.534C232.75 69.5725 231.657 81.9696 231.155 84.917C230.882 84.522 225.078 76.9257 225.078 77.0168C223.559 78.6121 218.409 86.1324 218.029 86.8009C216.206 82.2431 209.065 65.6984 206.756 61.3077C206.756 61.1862 206.498 61.3077 206.543 61.3077C208.062 66.0326 217.406 88.3201 217.619 88.2897C220.297 84.7854 222.792 81.1444 225.093 77.3815C226.02 78.9919 231.732 87.4238 231.839 86.9528C232.492 83.4344 232.963 79.8848 233.252 76.318Z" fill="#263238"/>
<path d="M58.537 219.858C59.5178 226.661 59.1669 233.591 57.5039 240.261C56.7238 243.354 55.6766 246.374 54.3742 249.286C52.7486 253.023 51.0623 256.669 51.4573 260.756C51.8523 261.014 50.5001 260.969 50.4546 260.574C39.5463 254.36 25.5387 253.22 17.1372 243.057C13.3461 238.106 10.9489 232.231 10.1942 226.041C8.94926 219.237 9.08358 212.252 10.5892 205.501C12.1085 199.955 15.2685 194.607 20.4796 191.903C25.6906 189.199 32.8919 189.336 38.5436 191.098C50.728 194.881 56.7899 208.083 58.537 219.858Z" fill="#FCB257"/>
<path d="M64.1279 300.758C62.6086 295.79 61.0894 290.822 59.5701 285.869C56.5316 276.161 53.4931 266.499 50.014 257.003C47.9883 251.271 45.8107 245.604 43.4812 240.003C43.7579 236.431 44.2194 232.877 44.8637 229.353C45.7752 225.129 47.097 221.027 48.3276 216.895C48.3276 216.637 47.9934 216.5 47.887 216.743C45.441 222.455 42.2354 229.748 42.1594 236.493C39.5058 230.143 36.6445 223.884 33.5756 217.715C33.229 212.496 33.3918 207.255 34.0618 202.067C34.0618 201.824 33.7275 201.763 33.6971 202.067C32.7668 206.608 32.4045 211.247 32.6185 215.877C30.2788 211.248 27.7974 206.691 25.1741 202.204C24.931 201.809 24.3689 202.204 24.5816 202.614C28.6836 210.514 32.4969 218.581 36.0672 226.755C31.0362 222.402 25.2265 219.041 18.9451 216.849C18.6717 216.743 18.459 217.138 18.7476 217.26C25.5941 220.151 31.8666 224.247 37.2674 229.353C39.8299 235.339 42.2809 241.37 44.6206 247.447C37.7839 240.747 28.4253 236.341 19.3857 233.987C19.0819 233.895 19.0059 234.382 19.2946 234.458C29.7623 237.618 37.8903 243.573 45.8512 250.683C46.7729 253.134 47.6794 255.596 48.5707 258.067C51.9434 267.426 55.1541 276.84 58.2028 286.31C59.6714 290.837 61.1147 295.395 62.5327 299.983C64.0519 304.875 65.2673 310.041 67.2424 314.781C67.4399 315.221 68.2451 315.13 68.1387 314.583C67.0422 309.909 65.7034 305.294 64.1279 300.758Z" fill="#263238"/>
<path d="M46.0183 210.301C44.0741 213.277 42.7369 216.607 42.0835 220.101C42.0835 220.192 42.205 220.237 42.2354 220.101C43.4547 216.808 44.8806 213.596 46.5045 210.484C46.6716 210.21 46.2006 210.013 46.0183 210.301Z" fill="#263238"/>
<path d="M26.5414 233.045C23.501 231.363 20.181 230.246 16.7422 229.748C16.6511 229.748 16.5903 229.869 16.7422 229.9C18.2615 230.553 19.9782 231.009 21.5735 231.632C23.1687 232.255 24.7335 232.984 26.3439 233.546C26.4023 233.547 26.4594 233.529 26.5078 233.497C26.5561 233.464 26.5935 233.418 26.6149 233.363C26.6362 233.309 26.6407 233.249 26.6276 233.193C26.6145 233.136 26.5844 233.084 26.5414 233.045Z" fill="#263238"/>
<path d="M21.0417 205.683C20.0604 204.932 19.007 204.281 17.8969 203.738C17.861 203.723 17.8208 203.72 17.7834 203.732C17.7459 203.743 17.7136 203.767 17.6919 203.799C17.6703 203.832 17.6607 203.871 17.6648 203.909C17.6689 203.948 17.6865 203.984 17.7145 204.012C18.6645 204.775 19.6815 205.452 20.7531 206.032C21.0265 206.154 21.2392 205.804 21.0417 205.683Z" fill="#263238"/>
<path d="M95.3335 256.943C87.4637 259.267 79.5636 261.424 71.6938 263.734C71.0101 263.946 57.7166 238.468 62.5783 225.342C64.8664 219.394 68.4526 214.031 73.0756 209.645C77.6987 205.258 83.2421 201.958 89.302 199.986C94.9233 198.071 101.821 196.476 107.746 197.783C110.278 198.464 112.593 199.782 114.471 201.612C116.348 203.441 117.726 205.722 118.472 208.235C120.796 214.966 119.991 223.018 118.745 229.9C117.733 236.37 115.052 242.465 110.967 247.584C106.789 252.537 101.456 255.18 95.3335 256.943Z" fill="#FCB257"/>
<path d="M106.728 232.726C101.757 235.156 96.6003 237.188 91.3074 238.803C87.78 239.751 84.3392 240.996 81.022 242.525C84.3644 235.126 87.9802 227.834 91.8544 220.693C97.107 219.363 101.983 216.842 106.105 213.325C106.318 213.142 106.105 212.839 105.816 213.006C101.586 215.72 97.0788 217.976 92.3709 219.736C93.4192 217.807 94.4675 215.877 95.5462 213.948C95.85 213.416 95.1056 212.884 94.7561 213.401C90.6212 219.403 86.8859 225.671 83.5744 232.164C82.7611 226.474 82.5168 220.718 82.8452 214.981C82.8452 214.829 82.6476 214.814 82.6173 214.981C81.6041 221.254 81.6452 227.651 82.7388 233.911C79.9738 239.426 77.467 245.062 75.1425 250.774C74.2462 247.341 73.0915 243.953 72.3015 240.504C71.1119 235.534 70.7323 230.403 71.1772 225.312C71.1772 225.175 70.9797 225.16 70.9494 225.312C69.5604 234.702 70.6983 244.294 74.2461 253.099C72.9396 256.548 71.6786 259.996 70.5392 263.445C64.6089 281.08 61.0978 299.438 60.1019 318.017C60.118 318.091 60.1593 318.158 60.2187 318.206C60.2781 318.254 60.3522 318.28 60.4285 318.28C60.5048 318.28 60.5789 318.254 60.6383 318.206C60.6977 318.158 60.739 318.091 60.7551 318.017C62.814 299.691 66.7441 281.624 72.4838 264.098C74.7627 257.231 77.391 250.577 80.2624 244.044C84.9114 242.677 89.5299 240.808 94.1029 239.228C98.6677 237.866 102.975 235.756 106.849 232.984C106.865 232.96 106.875 232.932 106.877 232.904C106.879 232.875 106.873 232.847 106.861 232.821C106.849 232.795 106.83 232.772 106.807 232.756C106.784 232.739 106.756 232.729 106.728 232.726Z" fill="#263238"/>
<path d="M114.066 225.327C109.25 227.044 104.692 229.429 99.8913 231.176C99.6634 231.252 99.8001 231.601 100.028 231.556C105.18 230.749 110.059 228.705 114.248 225.6C114.4 225.479 114.233 225.266 114.066 225.327Z" fill="#263238"/>
<path d="M74.7931 214.95C74.7931 214.692 74.4741 214.555 74.3981 214.814C73.0763 219.25 72.1648 223.929 73.4562 228.487C73.4562 228.531 73.4738 228.574 73.5051 228.605C73.5364 228.636 73.579 228.654 73.6233 228.654C73.6676 228.654 73.7101 228.636 73.7414 228.605C73.7728 228.574 73.7904 228.531 73.7904 228.487C74.0183 223.899 73.7296 219.447 74.7931 214.95Z" fill="#263238"/>
<path d="M94.665 204.711C93.1186 206.928 92.3836 209.611 92.5836 212.307C92.5836 212.474 92.8571 212.58 92.9027 212.383C93.4952 209.846 94.4219 207.536 95.2423 205.075C95.2907 204.999 95.3066 204.906 95.2867 204.818C95.2667 204.729 95.2125 204.653 95.136 204.604C95.0594 204.556 94.9668 204.54 94.8785 204.56C94.7901 204.58 94.7133 204.634 94.665 204.711Z" fill="#263238"/>
<path d="M1.79272 268.17C4.10199 275.493 9.57131 285.611 18.2463 285.687C23.8675 285.687 29.5344 285.079 35.1708 284.988C41.2479 284.897 47.3249 284.912 53.2804 285.277C53.7817 285.277 52.5663 267.198 38.0878 258.386C34.0162 255.91 28.9722 255.135 24.4145 254.132C19.1306 252.882 13.7081 252.315 8.27994 252.446C4.95277 252.582 2.20291 253.296 0.987504 256.7C-0.227903 260.103 0.683656 264.691 1.79272 268.17Z" fill="#FCB257"/>
<path d="M8.03686 259.024C11.5615 259.92 15.1166 260.969 18.6717 262.063C17.7513 261.054 16.7722 260.1 15.7395 259.206C14.2202 257.945 12.5491 256.943 10.9235 255.834C10.7867 255.742 10.9235 255.469 11.045 255.545C14.4797 256.964 17.4444 259.323 19.5984 262.351C24.0195 263.779 28.3797 265.39 32.5881 267.076C35.4946 268.259 38.2781 269.725 40.8984 271.452C40.0416 269.619 39.0248 267.865 37.8599 266.21C35.9304 263.719 33.3021 262.336 30.8105 260.558C30.7776 260.548 30.7474 260.531 30.7223 260.507C30.6972 260.483 30.6777 260.454 30.6655 260.422C30.6532 260.39 30.6484 260.355 30.6514 260.321C30.6545 260.287 30.6653 260.253 30.683 260.224C30.7008 260.194 30.725 260.169 30.7539 260.15C30.7828 260.131 30.8156 260.119 30.8498 260.115C30.884 260.11 30.9188 260.114 30.9515 260.125C30.9841 260.136 31.0139 260.154 31.0384 260.179C33.6735 261.321 36.0404 263.002 37.9871 265.113C39.9338 267.225 41.4171 269.72 42.3417 272.439C45.3655 274.605 48.1287 277.113 50.5761 279.914C60.1778 290.822 67.7437 305.331 67.7589 320.129C67.7589 320.478 67.1968 320.584 67.136 320.22C64.6844 305.715 58.3888 292.132 48.9049 280.886C48.2213 280.096 47.5072 279.367 46.7931 278.592C44.1395 278.222 41.4657 278.014 38.7867 277.969C35.7481 277.969 32.7096 278.425 29.5496 278.668C24.4904 279.078 18.9148 279.139 14.357 276.602C14.1443 276.48 14.357 276.131 14.5089 276.222C24.7031 279.914 35.3835 275.219 45.5929 277.437C41.231 273.278 36.1229 269.979 30.5371 267.714L29.5951 267.35C23.0623 268.124 16.1497 269.841 9.84478 267.714C9.82483 267.708 9.80625 267.698 9.79011 267.685C9.77397 267.672 9.76058 267.656 9.7507 267.637C9.74083 267.619 9.73466 267.599 9.73256 267.578C9.73045 267.558 9.73245 267.537 9.73843 267.517C9.74442 267.497 9.75428 267.478 9.76744 267.462C9.78061 267.446 9.79682 267.432 9.81516 267.423C9.8335 267.413 9.8536 267.407 9.87433 267.404C9.89505 267.402 9.91598 267.404 9.93593 267.41C16.013 268.93 21.9837 267.015 28.0607 266.711C21.4519 264.129 14.7064 262.078 8.08244 259.525C7.44435 259.373 7.42916 258.857 8.03686 259.024Z" fill="#263238"/>
<path d="M26.6326 259.176C28.3925 259.968 29.9895 261.081 31.3423 262.458C31.5094 262.594 31.3423 262.898 31.1144 262.761C30.3092 262.184 29.4888 261.637 28.6532 261.105C27.8604 260.643 27.0945 260.135 26.3591 259.586C26.3382 259.541 26.3293 259.492 26.333 259.442C26.3368 259.393 26.3532 259.345 26.3807 259.304C26.4081 259.263 26.4457 259.23 26.4898 259.207C26.534 259.185 26.5831 259.174 26.6326 259.176Z" fill="#263238"/>
<path d="M77.8772 282.74C77.7708 282.983 78.1051 283.211 78.2418 282.952C78.2981 283.028 78.3786 283.081 78.4697 283.104C84.3119 284.479 90.2329 285.494 96.1994 286.143C100.985 286.568 106.515 286.842 110.724 284.046C116.406 280.278 120.158 270.191 117.074 263.779C113.443 256.183 102.474 260.3 96.9591 263.004C88.4867 267.15 81.7348 274.133 77.8772 282.74Z" fill="#FCB257"/>
<path d="M73.6081 286.249C76.8316 283.165 80.4001 280.463 84.2429 278.197C87.0132 273.851 90.6806 270.147 94.9992 267.334C95.1967 267.198 95.379 267.517 95.1815 267.669C91.7297 270.415 88.6637 273.614 86.066 277.179C90.3405 274.837 94.7781 272.807 99.3443 271.102C100.978 268.073 103.46 265.587 106.485 263.946C106.485 263.946 106.606 263.946 106.561 264.053C104.057 265.942 101.876 268.225 100.104 270.813C102.808 269.796 105.528 268.869 108.262 267.957C108.505 267.881 108.597 268.246 108.369 268.337C103.507 270.236 98.5543 272.242 93.7534 274.536C99.6112 275.469 105.58 275.469 111.438 274.536C111.605 274.536 111.681 274.733 111.438 274.779C105.328 276.59 98.8376 276.69 92.6748 275.067C89.6113 276.551 86.6385 278.215 83.7719 280.051C86.1835 279.856 88.6107 280.056 90.958 280.643C95.1065 281.61 99.3537 282.09 103.613 282.071C103.765 282.071 103.811 282.329 103.613 282.36C96.2754 283.621 89.3476 280.294 82.0703 281.16C79.3584 282.989 76.8161 285.059 74.474 287.343C69.9386 291.872 66.204 297.138 63.429 302.915C60.3905 309.144 58.7041 315.753 56.2277 322.195C56.2096 322.253 56.169 322.302 56.1149 322.331C56.0607 322.359 55.9975 322.365 55.9391 322.347C55.8807 322.329 55.8318 322.288 55.8033 322.234C55.7748 322.18 55.769 322.116 55.7872 322.058C58.0509 309.296 64.371 295.304 73.6081 286.249Z" fill="#263238"/>
<path d="M95.7437 268.854C96.2239 267.987 96.857 267.215 97.6124 266.575C98.2331 265.907 98.969 265.356 99.7849 264.949C99.7849 264.949 99.8912 265.025 99.7849 265.071C99.1772 265.754 98.2656 266.256 97.6883 266.909C97.111 267.562 96.5033 268.337 95.8348 268.99C95.8196 269.081 95.6829 268.96 95.7437 268.854Z" fill="#263238"/>
<path d="M107.837 272.788C108.931 272.515 110.07 272.545 111.179 272.318C112.288 272.09 113.337 271.679 114.431 271.345C114.461 271.333 114.495 271.333 114.524 271.346C114.554 271.359 114.578 271.383 114.59 271.414C114.602 271.444 114.602 271.478 114.589 271.507C114.576 271.537 114.552 271.561 114.522 271.573C112.52 272.797 110.171 273.331 107.837 273.092C107.812 273.076 107.791 273.053 107.777 273.027C107.763 273 107.755 272.97 107.755 272.94C107.755 272.91 107.763 272.881 107.777 272.854C107.791 272.828 107.812 272.805 107.837 272.788Z" fill="#263238"/>
<path d="M43.39 306.349L44.3472 317.288L47.6136 354.206H76.525L80.6118 317.288L81.8273 306.349H43.39Z" fill="#37474F"/>
<path d="M43.39 306.349L44.3472 317.288H80.6118L81.8273 306.349H43.39Z" fill="#263238"/>
<path d="M40.5338 312.228H84.6987V303.356H40.5338V312.228Z" fill="#37474F"/>
<path d="M575.814 171.18H469.041V425.276H575.814V171.18Z" fill="#37474F"/>
<path d="M182.812 171.18H76.0389V425.276H182.812V171.18Z" fill="#455A64"/>
<path d="M575.814 171.18H182.812V204.361H575.814V171.18Z" fill="#455A64"/>
<path d="M183.496 187.771L232.538 187.497L281.579 187.391L379.663 187.209L477.731 187.391L526.773 187.497L575.814 187.771L526.773 188.044L477.731 188.151L379.663 188.333L281.579 188.151L232.538 188.044L183.496 187.771Z" fill="#263238"/>
<path d="M197.169 171.18H182.812V425.276H197.169V171.18Z" fill="#37474F"/>
<path d="M575.814 171.18H561.457V425.276H575.814V171.18Z" fill="#455A64"/>
<path d="M301.147 165.286H295.42V169.023H301.147V165.286Z" fill="#DBDBDB"/>
<path d="M308.592 165.043H302.864V168.78H308.592V165.043Z" fill="#DBDBDB"/>
<path d="M316.021 164.8H310.293V168.537H316.021V164.8Z" fill="#DBDBDB"/>
<path d="M323.45 164.541H317.723V168.279H323.45V164.541Z" fill="#DBDBDB"/>
<path d="M330.879 164.298H325.152V168.036H330.879V164.298Z" fill="#DBDBDB"/>
<path d="M338.308 164.055H332.581V167.793H338.308V164.055Z" fill="#DBDBDB"/>
<path d="M345.753 163.812H340.025V167.549H345.753V163.812Z" fill="#DBDBDB"/>
<path d="M353.182 163.554H347.454V167.291H353.182V163.554Z" fill="#DBDBDB"/>
<path d="M360.611 163.311H354.884V167.048H360.611V163.311Z" fill="#DBDBDB"/>
<path d="M362.024 171.18H294.022V166.638L362.024 164.739V171.18Z" fill="#C7C7C7"/>
<path d="M465.759 147.298H342.866L362.404 55.7928H485.297L465.759 147.298Z" fill="#DBDBDB"/>
<path d="M470.302 147.298H347.409L366.947 55.7928H489.839L470.302 147.298Z" fill="#C7C7C7"/>
<path d="M429.236 96.2506C428.858 98.3339 427.777 100.225 426.174 101.607C424.57 102.989 422.541 103.78 420.424 103.847C419.47 103.876 418.522 103.688 417.65 103.298C416.779 102.908 416.007 102.326 415.393 101.595C414.779 100.864 414.339 100.003 414.105 99.0776C413.871 98.152 413.85 97.1855 414.043 96.2506C414.418 94.1686 415.496 92.2783 417.097 90.8956C418.698 89.513 420.726 88.7218 422.84 88.6543C423.795 88.626 424.743 88.8138 425.615 89.2038C426.487 89.5938 427.259 90.1758 427.874 90.9063C428.489 91.6369 428.931 92.4971 429.167 93.4225C429.403 94.348 429.427 95.3148 429.236 96.2506Z" fill="#A6A6A6"/>
<path d="M435.541 171.18H375.105V166.486L435.541 164.541V171.18Z" fill="#DBDBDB"/>
<path d="M451.979 171.18H419.528L399.99 119.905H432.442L451.979 171.18Z" fill="#DBDBDB"/>
<path d="M457.327 171.18H424.876L405.323 119.905H437.774L457.327 171.18Z" fill="#A6A6A6"/>
<path d="M261.358 171.18H215.887C211.997 171.18 217.619 160.135 231.778 155.897C245.938 151.658 265.825 167.063 261.358 171.18Z" fill="#C7C7C7"/>
<path d="M243.507 171.18C243.418 169.906 243.552 168.626 243.902 167.398C244.241 166.148 244.753 164.952 245.421 163.842C246.086 162.727 246.934 161.731 247.928 160.895C248.917 160.068 250.065 159.453 251.301 159.087C250.356 159.875 249.468 160.728 248.642 161.64C247.852 162.533 247.15 163.499 246.545 164.526C245.308 166.635 244.29 168.864 243.507 171.18Z" fill="#A6A6A6"/>
<path d="M248.9 160.667C250.295 160.974 251.651 161.438 252.941 162.05C254.241 162.651 255.486 163.363 256.664 164.177C257.863 165.026 258.928 166.05 259.824 167.215C260.797 168.331 261.336 169.76 261.343 171.241C260.858 169.945 260.083 168.776 259.079 167.823C258.098 166.882 257.041 166.023 255.919 165.255C253.671 163.645 251.285 162.247 248.9 160.667Z" fill="#A6A6A6"/>
<path opacity="0.6" d="M167.574 140.583C167.574 140.583 185.562 132.303 185.562 121.182C185.562 110.061 162.242 102.951 162.242 94.2452C162.242 85.5399 172.481 80.4655 172.481 80.4655C172.481 80.4655 156.423 85.9501 156.423 96.9343C156.423 107.919 171.722 115.408 173.195 122.336C175.231 132.12 167.574 140.583 167.574 140.583Z" fill="#DBDBDB"/>
<path opacity="0.6" d="M168.471 140.583C168.471 140.583 150.483 134.065 150.483 125.39C150.483 116.715 173.803 111.033 173.803 104.212C173.803 97.3901 163.624 93.3792 163.624 93.3792C163.624 93.3792 179.698 97.6939 179.698 106.323C179.698 114.953 162.044 120.893 160.783 127.912C159.522 134.931 168.471 140.583 168.471 140.583Z" fill="#DBDBDB"/>
<path d="M176.325 168.522H159.218V171.196H176.325V168.522Z" fill="#37474F"/>
<path d="M176.325 168.522H159.218V170.284H176.325V168.522Z" fill="#263238"/>
<path d="M138.906 161.336C139.947 162.874 141.409 164.08 143.117 164.81C144.825 165.54 146.707 165.763 148.538 165.453C149.131 165.345 149.711 165.177 150.27 164.951C151.121 164.625 151.931 164.202 152.685 163.691L150.513 160.47C150.107 160.746 149.681 160.99 149.237 161.199C147.987 161.767 146.575 161.867 145.258 161.479C143.941 161.091 142.808 160.242 142.066 159.087C139.726 155.79 138.891 148.27 141.261 145.414C141.413 145.201 142.111 144.867 144.861 145.414C145.378 145.535 145.94 145.657 146.593 145.839C147.085 146.01 147.595 146.122 148.113 146.173V144.244L148.295 142.315L147.49 142.102C146.217 141.729 144.916 141.459 143.6 141.297C142.625 141.088 141.614 141.128 140.658 141.412C139.703 141.696 138.834 142.215 138.131 142.922C134.394 147.647 136.019 157.203 138.906 161.336Z" fill="#37474F"/>
<path d="M150.513 160.47C150.107 160.746 149.681 160.99 149.237 161.199L150.27 164.951C151.121 164.625 151.931 164.202 152.685 163.691L150.513 160.47Z" fill="#263238"/>
<path d="M143.722 141.236L144.861 145.353C145.378 145.475 145.94 145.596 146.593 145.778C147.085 145.949 147.595 146.062 148.113 146.113V144.183L148.295 142.254L147.49 142.041C146.257 141.674 144.997 141.405 143.722 141.236Z" fill="#263238"/>
<path d="M190.53 136.238C190.53 136.238 188.479 153.663 184.924 161.017C181.369 168.37 176.432 169.175 173.363 169.175H162.166C159.127 169.175 154.144 168.355 150.604 161.017C147.064 153.679 145.013 136.238 145.013 136.238H190.53Z" fill="#37474F"/>
<path d="M152.442 141.236C152.445 141.636 152.329 142.028 152.109 142.363C151.889 142.697 151.575 142.958 151.206 143.113C150.837 143.269 150.43 143.311 150.037 143.235C149.644 143.158 149.283 142.967 148.998 142.685C148.714 142.403 148.52 142.043 148.441 141.651C148.362 141.259 148.401 140.851 148.554 140.481C148.706 140.111 148.965 139.795 149.298 139.572C149.63 139.349 150.022 139.23 150.422 139.23C150.955 139.23 151.467 139.441 151.845 139.817C152.224 140.193 152.438 140.703 152.442 141.236ZM168.243 138.805C167.843 138.805 167.452 138.924 167.12 139.146C166.788 139.368 166.529 139.683 166.376 140.052C166.223 140.422 166.183 140.828 166.261 141.22C166.339 141.612 166.531 141.972 166.814 142.254C167.096 142.537 167.457 142.729 167.848 142.807C168.24 142.885 168.647 142.845 169.016 142.692C169.385 142.54 169.701 142.281 169.923 141.948C170.145 141.616 170.263 141.225 170.263 140.826C170.267 140.558 170.218 140.292 170.118 140.043C170.019 139.794 169.87 139.568 169.682 139.377C169.494 139.186 169.27 139.035 169.023 138.931C168.776 138.828 168.511 138.775 168.243 138.775V138.805ZM168.243 164.177C167.843 164.177 167.452 164.295 167.12 164.517C166.788 164.739 166.529 165.055 166.376 165.424C166.223 165.793 166.183 166.2 166.261 166.592C166.339 166.983 166.531 167.343 166.814 167.626C167.096 167.909 167.457 168.101 167.848 168.179C168.24 168.257 168.647 168.217 169.016 168.064C169.385 167.911 169.701 167.652 169.923 167.32C170.145 166.988 170.263 166.597 170.263 166.197C170.265 165.93 170.215 165.665 170.114 165.417C170.014 165.169 169.865 164.944 169.678 164.753C169.49 164.563 169.267 164.411 169.021 164.307C168.774 164.203 168.51 164.148 168.243 164.146V164.177ZM182.904 152.737C182.504 152.737 182.113 152.855 181.781 153.077C181.449 153.299 181.19 153.615 181.037 153.984C180.884 154.353 180.844 154.76 180.922 155.151C181 155.543 181.192 155.903 181.475 156.186C181.757 156.469 182.117 156.661 182.509 156.739C182.901 156.817 183.308 156.777 183.677 156.624C184.046 156.471 184.362 156.212 184.584 155.88C184.806 155.548 184.924 155.157 184.924 154.757C184.93 154.489 184.882 154.222 184.783 153.972C184.684 153.723 184.536 153.495 184.348 153.304C184.159 153.113 183.934 152.961 183.686 152.859C183.438 152.756 183.172 152.704 182.904 152.706V152.737ZM160.449 158.707C160.049 158.707 159.659 158.826 159.326 159.048C158.994 159.27 158.735 159.585 158.582 159.955C158.429 160.324 158.389 160.73 158.467 161.122C158.545 161.514 158.738 161.874 159.02 162.157C159.303 162.439 159.663 162.632 160.055 162.71C160.447 162.788 160.853 162.748 161.222 162.595C161.591 162.442 161.907 162.183 162.129 161.851C162.351 161.518 162.47 161.128 162.47 160.728C162.476 160.459 162.428 160.193 162.329 159.943C162.23 159.693 162.082 159.466 161.893 159.275C161.705 159.084 161.48 158.932 161.232 158.829C160.984 158.727 160.717 158.675 160.449 158.677V158.707ZM184.18 138.805C183.78 138.805 183.389 138.924 183.057 139.146C182.725 139.368 182.466 139.683 182.313 140.052C182.16 140.422 182.12 140.828 182.198 141.22C182.276 141.612 182.468 141.972 182.751 142.254C183.034 142.537 183.394 142.729 183.786 142.807C184.177 142.885 184.584 142.845 184.953 142.692C185.322 142.54 185.638 142.281 185.86 141.948C186.082 141.616 186.2 141.225 186.2 140.826C186.206 140.557 186.159 140.29 186.06 140.041C185.961 139.791 185.812 139.564 185.624 139.373C185.436 139.181 185.211 139.03 184.963 138.927C184.714 138.824 184.448 138.773 184.18 138.775V138.805ZM168.015 152.478C167.615 152.478 167.225 152.597 166.892 152.819C166.56 153.041 166.301 153.357 166.148 153.726C165.995 154.095 165.955 154.501 166.033 154.893C166.111 155.285 166.303 155.645 166.586 155.928C166.869 156.21 167.229 156.403 167.621 156.481C168.013 156.559 168.419 156.519 168.788 156.366C169.157 156.213 169.473 155.954 169.695 155.622C169.917 155.289 170.035 154.899 170.035 154.499C170.05 154.226 170.008 153.952 169.913 153.695C169.818 153.439 169.671 153.204 169.482 153.006C169.292 152.808 169.065 152.651 168.812 152.545C168.56 152.438 168.289 152.385 168.015 152.387V152.478ZM152.685 152.797C152.286 152.797 151.895 152.916 151.563 153.138C151.231 153.36 150.972 153.676 150.819 154.045C150.666 154.414 150.626 154.82 150.704 155.212C150.782 155.604 150.974 155.964 151.257 156.247C151.539 156.529 151.899 156.722 152.291 156.8C152.683 156.878 153.09 156.838 153.459 156.685C153.828 156.532 154.144 156.273 154.366 155.941C154.588 155.608 154.706 155.218 154.706 154.818C154.718 154.549 154.677 154.28 154.583 154.027C154.49 153.775 154.347 153.543 154.163 153.346C153.979 153.149 153.758 152.991 153.512 152.882C153.266 152.772 153 152.712 152.731 152.706L152.685 152.797ZM176.325 146.037C175.926 146.037 175.535 146.155 175.203 146.377C174.87 146.599 174.611 146.915 174.458 147.284C174.305 147.653 174.265 148.06 174.343 148.452C174.421 148.843 174.614 149.204 174.896 149.486C175.179 149.769 175.539 149.961 175.931 150.039C176.323 150.117 176.729 150.077 177.098 149.924C177.468 149.771 177.783 149.512 178.005 149.18C178.227 148.848 178.346 148.457 178.346 148.057C178.36 147.784 178.319 147.51 178.223 147.254C178.128 146.997 177.981 146.762 177.792 146.564C177.603 146.367 177.375 146.21 177.123 146.103C176.87 145.997 176.599 145.943 176.325 145.946V146.037ZM175.763 159.087C175.363 159.087 174.973 159.206 174.64 159.428C174.308 159.65 174.049 159.965 173.896 160.335C173.743 160.704 173.703 161.11 173.781 161.502C173.859 161.894 174.052 162.254 174.334 162.537C174.617 162.819 174.977 163.012 175.369 163.09C175.761 163.167 176.167 163.127 176.536 162.975C176.906 162.822 177.221 162.563 177.443 162.23C177.665 161.898 177.784 161.507 177.784 161.108C177.794 160.835 177.749 160.564 177.652 160.309C177.556 160.054 177.409 159.821 177.22 159.624C177.032 159.427 176.806 159.27 176.555 159.162C176.305 159.054 176.036 158.998 175.763 158.996V159.087ZM159.492 146.037C159.092 146.037 158.701 146.155 158.369 146.377C158.037 146.599 157.778 146.915 157.625 147.284C157.472 147.653 157.432 148.06 157.51 148.452C157.588 148.843 157.78 149.204 158.063 149.486C158.346 149.769 158.706 149.961 159.098 150.039C159.49 150.117 159.896 150.077 160.265 149.924C160.634 149.771 160.95 149.512 161.172 149.18C161.394 148.848 161.512 148.457 161.512 148.057C161.525 147.784 161.482 147.512 161.386 147.256C161.29 147 161.143 146.767 160.954 146.569C160.765 146.372 160.538 146.215 160.287 146.108C160.035 146 159.765 145.945 159.492 145.946V146.037Z" fill="#455A64"/>
</svg>
