<svg width="244" height="42" viewBox="0 0 244 42" fill="none" xmlns="http://www.w3.org/2000/svg">
<path d="M14.728 4.4V14H12.904V4.4H9.16V2.8H18.456V4.4H14.728ZM26.8654 2.8H28.6894V14H26.8654V8.992H20.9934V14H19.1694V2.8H20.9934V7.808H26.8654V2.8Z" fill="#C8660C"/>
<path d="M15.256 23.56C16.1627 23.56 16.9787 23.6987 17.704 23.976C18.44 24.2533 19.064 24.648 19.576 25.16C20.0987 25.672 20.4987 26.2853 20.776 27C21.064 27.7147 21.208 28.5147 21.208 29.4C21.208 30.2747 21.064 31.0747 20.776 31.8C20.4987 32.5147 20.0987 33.128 19.576 33.64C19.064 34.152 18.44 34.5467 17.704 34.824C16.9787 35.1013 16.1627 35.24 15.256 35.24C14.36 35.24 13.544 35.1013 12.808 34.824C12.0827 34.5467 11.4587 34.152 10.936 33.64C10.424 33.128 10.024 32.5147 9.736 31.8C9.45867 31.0747 9.32 30.2747 9.32 29.4C9.32 28.5147 9.45867 27.7147 9.736 27C10.024 26.2853 10.424 25.672 10.936 25.16C11.4587 24.648 12.0827 24.2533 12.808 23.976C13.544 23.6987 14.36 23.56 15.256 23.56ZM15.256 33.896C15.8213 33.896 16.3547 33.8 16.856 33.608C17.368 33.416 17.816 33.1333 18.2 32.76C18.584 32.376 18.888 31.9067 19.112 31.352C19.3467 30.7867 19.464 30.136 19.464 29.4C19.464 28.664 19.3467 28.0187 19.112 27.464C18.888 26.8987 18.584 26.4293 18.2 26.056C17.816 25.672 17.368 25.384 16.856 25.192C16.3547 25 15.8213 24.904 15.256 24.904C14.7013 24.904 14.168 25 13.656 25.192C13.1547 25.384 12.712 25.672 12.328 26.056C11.944 26.4293 11.6347 26.8987 11.4 27.464C11.176 28.0187 11.064 28.664 11.064 29.4C11.064 30.136 11.176 30.7867 11.4 31.352C11.6347 31.9067 11.944 32.376 12.328 32.76C12.712 33.1333 13.1547 33.416 13.656 33.608C14.168 33.8 14.7013 33.896 15.256 33.896ZM28.4464 23.8L32.6224 35H30.7504L29.8224 32.52H23.5344L22.6224 35H20.7344L24.9264 23.8H28.4464ZM29.3744 31.336L26.7664 24.12H26.6064L23.9824 31.336H29.3744Z" fill="#C8660C"/>
<line x1="50.5" y1="6.5" x2="50.5" y2="35.5" stroke="#717171"/>
<path d="M65.16 14.5V26.5H62.88V14.5H58.2V12.5H69.82V14.5H65.16ZM72.5917 21.26V26.5H70.5117V11.68H72.5917V19.52C72.5917 19.1333 72.6851 18.76 72.8717 18.4C73.0584 18.0267 73.3051 17.6933 73.6117 17.4C73.9317 17.0933 74.2984 16.8533 74.7117 16.68C75.1384 16.4933 75.5784 16.4 76.0317 16.4C76.6184 16.4 77.1251 16.4933 77.5517 16.68C77.9784 16.8533 78.3384 17.1 78.6317 17.42C78.9251 17.7267 79.1384 18.0933 79.2717 18.52C79.4184 18.9333 79.4917 19.38 79.4917 19.86V26.5H77.4317V19.68C77.4317 19.4 77.3917 19.1267 77.3117 18.86C77.2451 18.5933 77.1384 18.36 76.9917 18.16C76.8451 17.9467 76.6584 17.78 76.4317 17.66C76.2184 17.5267 75.9584 17.46 75.6517 17.46C75.1984 17.46 74.7784 17.58 74.3917 17.82C74.0184 18.06 73.6984 18.3667 73.4317 18.74C73.1651 19.1133 72.9584 19.5267 72.8117 19.98C72.6651 20.42 72.5917 20.8467 72.5917 21.26ZM80.2922 21.58C80.2922 20.7267 80.4389 19.98 80.7322 19.34C81.0255 18.6867 81.4255 18.14 81.9322 17.7C82.4389 17.26 83.0322 16.9333 83.7122 16.72C84.3922 16.4933 85.1189 16.38 85.8922 16.38C86.7989 16.38 87.5922 16.52 88.2722 16.8C88.9522 17.08 89.5122 17.48 89.9522 18C90.3922 18.5067 90.7122 19.1267 90.9122 19.86C91.1255 20.58 91.2189 21.38 91.1922 22.26H82.3922C82.3922 22.7933 82.4922 23.26 82.6922 23.66C82.9055 24.0467 83.1789 24.3667 83.5122 24.62C83.8455 24.8733 84.2255 25.06 84.6522 25.18C85.0789 25.3 85.5122 25.36 85.9522 25.36C86.7522 25.36 87.4122 25.2 87.9322 24.88C88.4522 24.5467 88.8255 24.1267 89.0522 23.62H91.1122C90.8989 24.06 90.6322 24.4733 90.3122 24.86C90.0055 25.2333 89.6389 25.5667 89.2122 25.86C88.7989 26.1533 88.3255 26.38 87.7922 26.54C87.2589 26.7133 86.6589 26.8 85.9922 26.8C85.1922 26.8 84.4389 26.6933 83.7322 26.48C83.0389 26.2533 82.4322 25.92 81.9122 25.48C81.4055 25.04 81.0055 24.4933 80.7122 23.84C80.4322 23.1867 80.2922 22.4333 80.2922 21.58ZM89.0522 21.06C89.0522 20.7933 89.0055 20.4733 88.9122 20.1C88.8189 19.7133 88.6522 19.3467 88.4122 19C88.1722 18.6533 87.8455 18.36 87.4322 18.12C87.0322 17.88 86.5189 17.76 85.8922 17.76C85.2789 17.76 84.7455 17.8733 84.2922 18.1C83.8522 18.3133 83.4855 18.5867 83.1922 18.92C82.9122 19.2533 82.7055 19.6133 82.5722 20C82.4389 20.3733 82.3722 20.7267 82.3722 21.06H89.0522ZM105.82 12.5H108.1V26.5H105.82V20.24H98.48V26.5H96.2V12.5H98.48V18.76H105.82V12.5ZM112.061 16.68V26.5H109.981V18.76H108.901V16.68H112.061ZM110.481 15.18C110.107 15.18 109.787 15.0533 109.521 14.8C109.267 14.5333 109.141 14.2133 109.141 13.84C109.141 13.4667 109.267 13.1533 109.521 12.9C109.787 12.6333 110.107 12.5 110.481 12.5C110.854 12.5 111.167 12.6333 111.421 12.9C111.687 13.1533 111.821 13.4667 111.821 13.84C111.821 14.2133 111.687 14.5333 111.421 14.8C111.167 15.0533 110.854 15.18 110.481 15.18ZM120.19 23.68C120.19 23.28 120.01 23 119.65 22.84C119.304 22.6667 118.857 22.54 118.31 22.46C117.777 22.3667 117.197 22.2933 116.57 22.24C115.957 22.1733 115.377 22.0467 114.83 21.86C114.297 21.6733 113.85 21.3867 113.49 21C113.144 20.6133 112.97 20.0667 112.97 19.36C112.97 18.84 113.09 18.3933 113.33 18.02C113.57 17.6333 113.904 17.3133 114.33 17.06C114.757 16.8067 115.257 16.62 115.83 16.5C116.404 16.3667 117.017 16.3 117.67 16.3C118.497 16.3 119.184 16.38 119.73 16.54C120.277 16.7 120.71 16.92 121.03 17.2C121.364 17.48 121.597 17.8067 121.73 18.18C121.877 18.5533 121.95 18.9467 121.95 19.36H120.43C120.43 19 120.35 18.7133 120.19 18.5C120.044 18.2733 119.844 18.1 119.59 17.98C119.337 17.86 119.044 17.78 118.71 17.74C118.377 17.7 118.03 17.68 117.67 17.68C117.27 17.68 116.89 17.7 116.53 17.74C116.17 17.78 115.857 17.86 115.59 17.98C115.324 18.1 115.11 18.2733 114.95 18.5C114.804 18.7133 114.73 19 114.73 19.36C114.73 19.7733 114.904 20.0667 115.25 20.24C115.61 20.4133 116.057 20.5467 116.59 20.64C117.137 20.72 117.717 20.7933 118.33 20.86C118.957 20.9133 119.537 21.0333 120.07 21.22C120.617 21.3933 121.064 21.6733 121.41 22.06C121.77 22.4333 121.95 22.9733 121.95 23.68C121.95 24.1333 121.864 24.5533 121.69 24.94C121.53 25.3133 121.27 25.64 120.91 25.92C120.55 26.2 120.09 26.4133 119.53 26.56C118.97 26.72 118.297 26.8 117.51 26.8C116.737 26.8 116.064 26.7133 115.49 26.54C114.93 26.38 114.464 26.16 114.09 25.88C113.717 25.6 113.437 25.2733 113.25 24.9C113.064 24.5133 112.97 24.1 112.97 23.66H114.63C114.63 24.22 114.87 24.6533 115.35 24.96C115.83 25.2667 116.55 25.42 117.51 25.42C117.857 25.42 118.19 25.4 118.51 25.36C118.83 25.3067 119.11 25.2133 119.35 25.08C119.604 24.9467 119.804 24.7733 119.95 24.56C120.11 24.3333 120.19 24.04 120.19 23.68ZM126.215 16.68H130.675V18.36H126.415V23.28C126.415 23.8933 126.535 24.3533 126.775 24.66C127.015 24.9667 127.335 25.16 127.735 25.24C128.135 25.32 128.589 25.3133 129.095 25.22C129.615 25.1133 130.142 24.96 130.675 24.76V26.5C129.889 26.6467 129.115 26.74 128.355 26.78C127.595 26.82 126.915 26.7333 126.315 26.52C125.729 26.3067 125.249 25.94 124.875 25.42C124.515 24.8867 124.335 24.1333 124.335 23.16V18.36H122.555V16.68H125.555L123.475 13.82H126.515L126.215 16.68ZM137.023 16.38C137.743 16.38 138.436 16.5 139.103 16.74C139.77 16.9667 140.356 17.3067 140.863 17.76C141.383 18.2 141.796 18.7467 142.103 19.4C142.41 20.04 142.563 20.7667 142.563 21.58C142.563 22.3933 142.41 23.1267 142.103 23.78C141.796 24.42 141.383 24.9667 140.863 25.42C140.356 25.8733 139.77 26.22 139.103 26.46C138.436 26.6867 137.743 26.8 137.023 26.8C136.303 26.8 135.61 26.6867 134.943 26.46C134.276 26.22 133.69 25.8733 133.183 25.42C132.676 24.9667 132.27 24.42 131.963 23.78C131.656 23.1267 131.503 22.3933 131.503 21.58C131.503 20.7667 131.656 20.04 131.963 19.4C132.27 18.7467 132.676 18.2 133.183 17.76C133.69 17.3067 134.276 16.9667 134.943 16.74C135.61 16.5 136.303 16.38 137.023 16.38ZM137.023 25.28C137.436 25.28 137.856 25.22 138.283 25.1C138.71 24.9667 139.096 24.7533 139.443 24.46C139.803 24.1667 140.096 23.7867 140.323 23.32C140.55 22.8533 140.663 22.2733 140.663 21.58C140.663 20.8867 140.55 20.3067 140.323 19.84C140.096 19.3733 139.803 19 139.443 18.72C139.096 18.4267 138.71 18.22 138.283 18.1C137.856 17.9667 137.436 17.9 137.023 17.9C136.623 17.9 136.203 17.9667 135.763 18.1C135.336 18.22 134.95 18.4267 134.603 18.72C134.256 19 133.97 19.3733 133.743 19.84C133.516 20.3067 133.403 20.8867 133.403 21.58C133.403 22.2733 133.516 22.8533 133.743 23.32C133.97 23.7867 134.256 24.1667 134.603 24.46C134.95 24.7533 135.336 24.9667 135.763 25.1C136.203 25.22 136.623 25.28 137.023 25.28ZM145.283 20.38C145.403 19.3933 145.623 18.6267 145.943 18.08C146.263 17.52 146.637 17.1133 147.063 16.86C147.49 16.5933 147.937 16.44 148.403 16.4C148.883 16.3467 149.33 16.34 149.743 16.38V18.28C149.677 18.2667 149.523 18.26 149.283 18.26C149.043 18.2467 148.763 18.26 148.443 18.3C148.123 18.3267 147.783 18.3933 147.423 18.5C147.077 18.5933 146.757 18.7533 146.463 18.98C146.17 19.1933 145.923 19.4867 145.723 19.86C145.537 20.22 145.443 20.68 145.443 21.24V26.5H143.363V16.68H144.443L145.083 20.38H145.283ZM161.27 16.68L157.71 26.42C157.337 27.4467 156.884 28.2333 156.35 28.78C155.817 29.34 155.29 29.7467 154.77 30C154.25 30.2533 153.777 30.3933 153.35 30.42C152.937 30.46 152.657 30.4667 152.51 30.44C152.07 30.3867 151.65 30.2667 151.25 30.08C150.85 29.8933 150.49 29.66 150.17 29.38C149.85 29.1 149.59 28.78 149.39 28.42C149.177 28.0733 149.044 27.7133 148.99 27.34H149.39C149.51 27.6067 149.684 27.8667 149.91 28.12C150.124 28.3733 150.37 28.5933 150.65 28.78C150.944 28.98 151.264 29.1267 151.61 29.22C151.957 29.3133 152.31 29.34 152.67 29.3C153.19 29.2333 153.704 28.9667 154.21 28.5C154.717 28.0333 155.17 27.3667 155.57 26.5H153.51L149.93 16.68H152.01L155.29 25.68H155.85L159.19 16.68H161.27ZM170.988 16.38C171.708 16.38 172.401 16.5 173.068 16.74C173.735 16.9667 174.321 17.3067 174.828 17.76C175.348 18.2 175.761 18.7467 176.068 19.4C176.375 20.04 176.528 20.7667 176.528 21.58C176.528 22.3933 176.375 23.1267 176.068 23.78C175.761 24.42 175.348 24.9667 174.828 25.42C174.321 25.8733 173.735 26.22 173.068 26.46C172.401 26.6867 171.708 26.8 170.988 26.8C170.268 26.8 169.575 26.6867 168.908 26.46C168.241 26.22 167.655 25.8733 167.148 25.42C166.641 24.9667 166.235 24.42 165.928 23.78C165.621 23.1267 165.468 22.3933 165.468 21.58C165.468 20.7667 165.621 20.04 165.928 19.4C166.235 18.7467 166.641 18.2 167.148 17.76C167.655 17.3067 168.241 16.9667 168.908 16.74C169.575 16.5 170.268 16.38 170.988 16.38ZM170.988 25.28C171.401 25.28 171.821 25.22 172.248 25.1C172.675 24.9667 173.061 24.7533 173.408 24.46C173.768 24.1667 174.061 23.7867 174.288 23.32C174.515 22.8533 174.628 22.2733 174.628 21.58C174.628 20.8867 174.515 20.3067 174.288 19.84C174.061 19.3733 173.768 19 173.408 18.72C173.061 18.4267 172.675 18.22 172.248 18.1C171.821 17.9667 171.401 17.9 170.988 17.9C170.588 17.9 170.168 17.9667 169.728 18.1C169.301 18.22 168.915 18.4267 168.568 18.72C168.221 19 167.935 19.3733 167.708 19.84C167.481 20.3067 167.368 20.8867 167.368 21.58C167.368 22.2733 167.481 22.8533 167.708 23.32C167.935 23.7867 168.221 24.1667 168.568 24.46C168.915 24.7533 169.301 24.9667 169.728 25.1C170.168 25.22 170.588 25.28 170.988 25.28ZM182.039 11.5C182.346 11.4867 182.639 11.5067 182.919 11.56C183.199 11.6 183.452 11.66 183.679 11.74C183.906 11.82 184.099 11.9067 184.259 12C184.419 12.08 184.539 12.1533 184.619 12.22V13.82C184.299 13.6067 183.972 13.44 183.639 13.32C183.319 13.2 182.946 13.1533 182.519 13.18C182.226 13.1933 181.966 13.2533 181.739 13.36C181.526 13.4667 181.346 13.6067 181.199 13.78C181.066 13.9533 180.952 14.1467 180.859 14.36C180.779 14.56 180.719 14.7667 180.679 14.98C180.586 15.4867 180.579 16.0533 180.659 16.68H183.999V18.36H180.659V26.5H178.579V18.36H176.799V16.68H179.179C179.099 16.5333 179.019 16.3733 178.939 16.2C178.872 16.04 178.806 15.8533 178.739 15.64C178.672 15.4267 178.619 15.1933 178.579 14.94C178.486 14.3267 178.506 13.8067 178.639 13.38C178.786 12.9533 179.019 12.6067 179.339 12.34C179.659 12.0733 180.052 11.8733 180.519 11.74C180.986 11.6067 181.492 11.5267 182.039 11.5ZM198.46 12.5L203.68 26.5H201.34L200.18 23.4H192.32L191.18 26.5H188.82L194.06 12.5H198.46ZM199.62 21.92L196.36 12.9H196.16L192.88 21.92H199.62ZM209.344 11.5C209.65 11.4867 209.944 11.5067 210.224 11.56C210.504 11.6 210.757 11.66 210.984 11.74C211.21 11.82 211.404 11.9067 211.564 12C211.724 12.08 211.844 12.1533 211.924 12.22V13.82C211.604 13.6067 211.277 13.44 210.944 13.32C210.624 13.2 210.25 13.1533 209.824 13.18C209.53 13.1933 209.27 13.2533 209.044 13.36C208.83 13.4667 208.65 13.6067 208.504 13.78C208.37 13.9533 208.257 14.1467 208.164 14.36C208.084 14.56 208.024 14.7667 207.984 14.98C207.89 15.4867 207.884 16.0533 207.964 16.68H211.304V18.36H207.964V26.5H205.884V18.36H204.104V16.68H206.484C206.404 16.5333 206.324 16.3733 206.244 16.2C206.177 16.04 206.11 15.8533 206.044 15.64C205.977 15.4267 205.924 15.1933 205.884 14.94C205.79 14.3267 205.81 13.8067 205.944 13.38C206.09 12.9533 206.324 12.6067 206.644 12.34C206.964 12.0733 207.357 11.8733 207.824 11.74C208.29 11.6067 208.797 11.5267 209.344 11.5ZM214.541 20.38C214.661 19.3933 214.881 18.6267 215.201 18.08C215.521 17.52 215.894 17.1133 216.321 16.86C216.748 16.5933 217.194 16.44 217.661 16.4C218.141 16.3467 218.588 16.34 219.001 16.38V18.28C218.934 18.2667 218.781 18.26 218.541 18.26C218.301 18.2467 218.021 18.26 217.701 18.3C217.381 18.3267 217.041 18.3933 216.681 18.5C216.334 18.5933 216.014 18.7533 215.721 18.98C215.428 19.1933 215.181 19.4867 214.981 19.86C214.794 20.22 214.701 20.68 214.701 21.24V26.5H212.621V16.68H213.701L214.341 20.38H214.541ZM222.588 16.68V26.5H220.508V18.76H219.428V16.68H222.588ZM221.008 15.18C220.635 15.18 220.315 15.0533 220.048 14.8C219.795 14.5333 219.668 14.2133 219.668 13.84C219.668 13.4667 219.795 13.1533 220.048 12.9C220.315 12.6333 220.635 12.5 221.008 12.5C221.381 12.5 221.695 12.6333 221.948 12.9C222.215 13.1533 222.348 13.4667 222.348 13.84C222.348 14.2133 222.215 14.5333 221.948 14.8C221.695 15.0533 221.381 15.18 221.008 15.18ZM228.698 26.8C227.831 26.8 227.064 26.6667 226.398 26.4C225.744 26.12 225.191 25.7467 224.738 25.28C224.298 24.8 223.964 24.2467 223.738 23.62C223.511 22.98 223.398 22.3 223.398 21.58C223.398 20.8733 223.511 20.2067 223.738 19.58C223.964 18.94 224.298 18.3867 224.738 17.92C225.191 17.44 225.744 17.0667 226.398 16.8C227.064 16.52 227.831 16.38 228.698 16.38C229.484 16.38 230.144 16.5067 230.678 16.76C231.224 17.0133 231.671 17.3133 232.018 17.66C232.364 17.9933 232.624 18.3333 232.798 18.68C232.984 19.0133 233.104 19.2667 233.158 19.44H231.098C231.044 19.28 230.964 19.1067 230.858 18.92C230.764 18.7333 230.624 18.5533 230.438 18.38C230.251 18.2067 230.018 18.0667 229.738 17.96C229.458 17.84 229.111 17.78 228.698 17.78C228.338 17.78 227.964 17.8533 227.578 18C227.204 18.1467 226.858 18.3733 226.538 18.68C226.231 18.9867 225.971 19.38 225.758 19.86C225.558 20.34 225.458 20.92 225.458 21.6C225.458 22.2667 225.558 22.84 225.758 23.32C225.971 23.8 226.231 24.1933 226.538 24.5C226.858 24.8067 227.204 25.0333 227.578 25.18C227.964 25.3267 228.338 25.4 228.698 25.4C229.111 25.4 229.458 25.36 229.738 25.28C230.018 25.1867 230.251 25.0667 230.438 24.92C230.624 24.76 230.764 24.58 230.858 24.38C230.964 24.18 231.044 23.9667 231.098 23.74H233.158C233.104 23.9667 232.984 24.2533 232.798 24.6C232.624 24.9467 232.364 25.2867 232.018 25.62C231.671 25.94 231.224 26.22 230.678 26.46C230.144 26.6867 229.484 26.8 228.698 26.8ZM238.389 16.38C239.029 16.38 239.616 16.4533 240.149 16.6C240.696 16.7467 241.163 16.9733 241.549 17.28C241.949 17.5733 242.256 17.96 242.469 18.44C242.696 18.9067 242.809 19.4667 242.809 20.12V26.5H241.729L240.889 23.3C240.689 23.9 240.429 24.4133 240.109 24.84C239.803 25.2667 239.449 25.62 239.049 25.9C238.663 26.1667 238.243 26.36 237.789 26.48C237.349 26.6 236.896 26.66 236.429 26.66C236.056 26.66 235.696 26.6067 235.349 26.5C235.016 26.4067 234.723 26.2533 234.469 26.04C234.216 25.8267 234.016 25.5467 233.869 25.2C233.723 24.8533 233.649 24.4333 233.649 23.94C233.676 23.46 233.796 23.04 234.009 22.68C234.223 22.3067 234.509 22 234.869 21.76C235.229 21.5067 235.636 21.3067 236.089 21.16C236.556 21.0133 237.036 20.92 237.529 20.88C238.183 20.8133 238.796 20.8 239.369 20.84C239.943 20.88 240.396 20.9267 240.729 20.98V20.26C240.729 19.7933 240.669 19.4133 240.549 19.12C240.443 18.8133 240.283 18.5733 240.069 18.4C239.869 18.2133 239.623 18.0867 239.329 18.02C239.049 17.94 238.736 17.9 238.389 17.9C237.669 17.9 236.976 18.0733 236.309 18.42C235.643 18.7667 235.089 19.1933 234.649 19.7L234.449 18.06C234.663 17.86 234.909 17.66 235.189 17.46C235.469 17.26 235.776 17.08 236.109 16.92C236.443 16.76 236.796 16.6333 237.169 16.54C237.556 16.4333 237.963 16.38 238.389 16.38ZM240.689 21.66C240.556 21.6333 240.363 21.6067 240.109 21.58C239.869 21.5533 239.596 21.5333 239.289 21.52C238.996 21.5067 238.683 21.5067 238.349 21.52C238.029 21.5333 237.729 21.5733 237.449 21.64C237.076 21.7333 236.769 21.8733 236.529 22.06C236.303 22.2333 236.123 22.44 235.989 22.68C235.869 22.9067 235.796 23.14 235.769 23.38C235.756 23.62 235.776 23.8467 235.829 24.06C235.909 24.4067 236.083 24.6933 236.349 24.92C236.629 25.1467 236.963 25.26 237.349 25.26C237.683 25.26 238.016 25.2067 238.349 25.1C238.683 24.9933 238.996 24.84 239.289 24.64C239.596 24.44 239.869 24.2067 240.109 23.94C240.349 23.66 240.543 23.36 240.689 23.04V21.66Z" fill="#CBCBCB"/>
</svg>
