<svg width="260" height="67" viewBox="0 0 260 67" fill="none" xmlns="http://www.w3.org/2000/svg">
<path fill-rule="evenodd" clip-rule="evenodd" d="M31.1133 49.2698C28.7512 49.7242 19.1674 49.3347 16.0629 49.3347C11.2035 49.3347 5.93921 49.5294 1.14735 49.3347C0.877383 49.075 0.67491 49.6593 1.01236 48.9451C1.4848 48.1011 3.30706 47.0623 4.11695 46.478L17.0077 37.3237C18.2226 36.0253 16.8727 25.962 17.5477 22.0017C17.2777 20.898 17.7501 19.5346 17.3452 18.4309C16.3328 15.7041 12.3508 19.6644 9.78619 21.4174L0 28.2993V49.3347C2.76713 49.5944 30.5734 49.5294 31.1133 49.2698Z" fill="#36B516"/>
<path fill-rule="evenodd" clip-rule="evenodd" d="M1.01222 48.9456C0.674765 49.6597 0.877238 49.0754 1.1472 49.3351C5.93906 49.5299 11.2034 49.3351 16.0627 49.3351C19.1673 49.3351 28.751 49.7246 31.1132 49.2702C31.9906 48.7508 31.9231 48.556 31.9231 47.3225C31.9906 43.8166 32.1256 30.1176 31.7206 28.7542C30.3708 28.1699 27.2662 28.2997 25.444 28.4296C25.2415 30.7668 25.7139 37.7786 25.2415 39.4017C24.904 40.7002 23.1493 41.0248 21.8669 41.5442C18.2224 42.8427 2.90197 48.556 1.01222 48.9456Z" fill="#FF502A"/>
<path fill-rule="evenodd" clip-rule="evenodd" d="M17.5473 22.0024C16.8723 25.9628 18.2222 36.026 17.0073 37.3245L4.11655 46.4788C3.30666 47.0631 1.4844 48.1019 1.01196 48.9459C2.90171 48.5563 18.2222 42.843 21.8667 41.5445C23.149 41.0251 24.9038 40.7005 25.2412 39.402C25.7137 37.7789 25.2412 30.7672 25.4437 28.4299C25.2412 26.1575 26.1186 21.9375 24.3638 20.7689C22.6091 19.6002 19.3695 21.6129 17.5473 22.0024Z" fill="#EFD90F"/>
<path d="M60.912 40L59.832 36.784H53.52L52.44 40H48.408L54.504 24.208H59.4L65.496 40H60.912ZM54.336 34.336H59.016L56.688 27.424H56.64L54.336 34.336ZM67.1063 40V24.208H71.0423V40H67.1063ZM73.3144 40V24.208H84.2344V27.304H77.2504V31.168H83.0344V33.808H77.2504V40H73.3144ZM91.2458 40.192C87.3338 40.192 84.7898 37.936 84.7898 34.096C84.7898 30.232 87.3338 27.952 91.2458 27.952C95.1578 27.952 97.7018 30.232 97.7018 34.096C97.7018 37.936 95.1578 40.192 91.2458 40.192ZM91.2458 37.408C93.0218 37.408 94.0538 36.184 94.0538 34.096C94.0538 31.984 93.0218 30.736 91.2458 30.736C89.4698 30.736 88.4378 31.984 88.4378 34.096C88.4378 36.184 89.4698 37.408 91.2458 37.408ZM99.3026 40V28.144H102.951L102.807 31.528H102.855C103.359 29.272 104.631 27.952 106.959 27.952C109.383 27.952 110.799 29.512 110.799 32.584C110.799 33.256 110.727 34.312 110.679 34.936H107.367C107.415 34.36 107.439 33.76 107.439 33.4C107.439 31.672 106.743 30.976 105.591 30.976C104.031 30.976 102.951 32.248 102.951 34.888V40H99.3026ZM112.525 40V24.208H116.461V30.328H123.229V24.208H127.165V40H123.229V33.4H116.461V40H112.525ZM135.402 40.192C131.49 40.192 128.946 37.936 128.946 34.096C128.946 30.232 131.49 27.952 135.402 27.952C139.314 27.952 141.858 30.232 141.858 34.096C141.858 37.936 139.314 40.192 135.402 40.192ZM135.402 37.408C137.178 37.408 138.21 36.184 138.21 34.096C138.21 31.984 137.178 30.736 135.402 30.736C133.626 30.736 132.594 31.984 132.594 34.096C132.594 36.184 133.626 37.408 135.402 37.408ZM143.459 40V28.144H147.107L146.987 31.216H147.011C147.563 29.176 148.907 27.952 151.067 27.952C153.347 27.952 154.811 29.128 155.075 31.048H155.099C155.579 29.128 156.875 27.952 159.155 27.952C161.747 27.952 163.211 29.584 163.211 32.368V40H159.563V33.208C159.563 31.816 158.843 30.976 157.595 30.976C156.155 30.976 155.147 32.08 155.147 34.264V40H151.499V33.208C151.499 31.816 150.779 30.976 149.531 30.976C148.115 30.976 147.107 32.104 147.107 34.336V40H143.459ZM176.784 33.736V34.768H168.36C168.528 36.712 169.512 37.552 171.144 37.552C172.56 37.552 173.472 37.048 173.568 35.896H176.784C176.712 38.608 174.456 40.192 171.072 40.192C167.136 40.192 164.688 37.96 164.688 34.192C164.688 30.28 167.136 27.952 171.144 27.952C174.456 27.952 176.784 29.848 176.784 33.736ZM173.568 32.824V32.632C173.568 31.288 172.656 30.592 171.144 30.592C169.608 30.592 168.744 31.264 168.456 32.824H173.568ZM180.767 40L177.455 28.144H181.295L183.287 36.472H183.335L185.615 28.144H189.239L191.447 36.472H191.471L193.559 28.144H196.967L193.655 40H189.167L187.223 32.2H187.151L185.087 40H180.767ZM204.097 40.192C200.185 40.192 197.641 37.936 197.641 34.096C197.641 30.232 200.185 27.952 204.097 27.952C208.009 27.952 210.553 30.232 210.553 34.096C210.553 37.936 208.009 40.192 204.097 40.192ZM204.097 37.408C205.873 37.408 206.905 36.184 206.905 34.096C206.905 31.984 205.873 30.736 204.097 30.736C202.321 30.736 201.289 31.984 201.289 34.096C201.289 36.184 202.321 37.408 204.097 37.408ZM212.154 40V28.144H215.802L215.658 31.528H215.706C216.21 29.272 217.482 27.952 219.81 27.952C222.234 27.952 223.65 29.512 223.65 32.584C223.65 33.256 223.578 34.312 223.53 34.936H220.218C220.266 34.36 220.29 33.76 220.29 33.4C220.29 31.672 219.594 30.976 218.442 30.976C216.882 30.976 215.802 32.248 215.802 34.888V40H212.154ZM225.257 40V23.368H228.905V33.856H228.929L233.993 28.144H238.433L233.441 33.304L238.721 40H233.921L230.825 35.632L228.905 37.576V40H225.257Z" fill="#393938"/>
</svg>
