<svg width="212" height="32" viewBox="0 0 212 32" fill="none" xmlns="http://www.w3.org/2000/svg">
<path fill-rule="evenodd" clip-rule="evenodd" d="M31.1133 31.7698C28.7512 32.2242 19.1674 31.8347 16.0629 31.8347C11.2035 31.8347 5.93921 32.0294 1.14735 31.8347C0.877383 31.575 0.67491 32.1593 1.01236 31.4451C1.4848 30.6011 3.30706 29.5623 4.11695 28.978L17.0077 19.8237C18.2226 18.5253 16.8727 8.46204 17.5477 4.50168C17.2777 3.39797 17.7501 2.03457 17.3452 0.930859C16.3328 -1.79595 12.3508 2.16441 9.78619 3.91736L0 10.7993V31.8347C2.76713 32.0944 30.5734 32.0294 31.1133 31.7698Z" fill="#36B516"/>
<path fill-rule="evenodd" clip-rule="evenodd" d="M1.01232 31.4456C0.674868 32.1597 0.877341 31.5754 1.1473 31.8351C5.93916 32.0299 11.2035 31.8351 16.0628 31.8351C19.1674 31.8351 28.7511 32.2246 31.1133 31.7702C31.9907 31.2508 31.9232 31.056 31.9232 29.8225C31.9907 26.3166 32.1257 12.6176 31.7207 11.2542C30.3709 10.6699 27.2663 10.7997 25.4441 10.9296C25.2416 13.2668 25.714 20.2786 25.2416 21.9017C24.9041 23.2002 23.1494 23.5248 21.867 24.0442C18.2225 25.3427 2.90207 31.056 1.01232 31.4456Z" fill="#FF502A"/>
<path fill-rule="evenodd" clip-rule="evenodd" d="M17.5472 4.50229C16.8723 8.46266 18.2221 18.5259 17.0073 19.8244L4.11653 28.9786C3.30663 29.5629 1.48438 30.6017 1.01194 31.4457C2.90169 31.0562 18.2221 25.3429 21.8667 24.0444C23.149 23.525 24.9037 23.2004 25.2412 21.9019C25.7136 20.2788 25.2412 13.267 25.4437 10.9298C25.2412 8.65743 26.1186 4.43737 24.3638 3.26874C22.6091 2.1001 19.3695 4.11275 17.5472 4.50229Z" fill="#EFD90F"/>
<path d="M58.76 20L57.86 17.32H52.6L51.7 20H48.34L53.42 6.84H57.5L62.58 20H58.76ZM53.28 15.28H57.18L55.24 9.52H55.2L53.28 15.28ZM63.9219 20V6.84H67.2019V20H63.9219ZM69.0953 20V6.84H78.1953V9.42H72.3753V12.64H77.1953V14.84H72.3753V20H69.0953ZM84.0381 20.16C80.7781 20.16 78.6581 18.28 78.6581 15.08C78.6581 11.86 80.7781 9.96 84.0381 9.96C87.2981 9.96 89.4181 11.86 89.4181 15.08C89.4181 18.28 87.2981 20.16 84.0381 20.16ZM84.0381 17.84C85.5181 17.84 86.3781 16.82 86.3781 15.08C86.3781 13.32 85.5181 12.28 84.0381 12.28C82.5581 12.28 81.6981 13.32 81.6981 15.08C81.6981 16.82 82.5581 17.84 84.0381 17.84ZM90.7522 20V10.12H93.7922L93.6722 12.94H93.7122C94.1322 11.06 95.1922 9.96 97.1322 9.96C99.1522 9.96 100.332 11.26 100.332 13.82C100.332 14.38 100.272 15.26 100.232 15.78H97.4722C97.5122 15.3 97.5322 14.8 97.5322 14.5C97.5322 13.06 96.9522 12.48 95.9922 12.48C94.6922 12.48 93.7922 13.54 93.7922 15.74V20H90.7522ZM101.771 20V6.84H105.051V11.94H110.691V6.84H113.971V20H110.691V14.5H105.051V20H101.771ZM120.835 20.16C117.575 20.16 115.455 18.28 115.455 15.08C115.455 11.86 117.575 9.96 120.835 9.96C124.095 9.96 126.215 11.86 126.215 15.08C126.215 18.28 124.095 20.16 120.835 20.16ZM120.835 17.84C122.315 17.84 123.175 16.82 123.175 15.08C123.175 13.32 122.315 12.28 120.835 12.28C119.355 12.28 118.495 13.32 118.495 15.08C118.495 16.82 119.355 17.84 120.835 17.84ZM127.549 20V10.12H130.589L130.489 12.68H130.509C130.969 10.98 132.089 9.96 133.889 9.96C135.789 9.96 137.009 10.94 137.229 12.54H137.249C137.649 10.94 138.729 9.96 140.629 9.96C142.789 9.96 144.009 11.32 144.009 13.64V20H140.969V14.34C140.969 13.18 140.369 12.48 139.329 12.48C138.129 12.48 137.289 13.4 137.289 15.22V20H134.249V14.34C134.249 13.18 133.649 12.48 132.609 12.48C131.429 12.48 130.589 13.42 130.589 15.28V20H127.549ZM155.32 14.78V15.64H148.3C148.44 17.26 149.26 17.96 150.62 17.96C151.8 17.96 152.56 17.54 152.64 16.58H155.32C155.26 18.84 153.38 20.16 150.56 20.16C147.28 20.16 145.24 18.3 145.24 15.16C145.24 11.9 147.28 9.96 150.62 9.96C153.38 9.96 155.32 11.54 155.32 14.78ZM152.64 14.02V13.86C152.64 12.74 151.88 12.16 150.62 12.16C149.34 12.16 148.62 12.72 148.38 14.02H152.64ZM158.639 20L155.879 10.12H159.079L160.739 17.06H160.779L162.679 10.12H165.699L167.539 17.06H167.559L169.299 10.12H172.139L169.379 20H165.639L164.019 13.5H163.959L162.239 20H158.639ZM178.081 20.16C174.821 20.16 172.701 18.28 172.701 15.08C172.701 11.86 174.821 9.96 178.081 9.96C181.341 9.96 183.461 11.86 183.461 15.08C183.461 18.28 181.341 20.16 178.081 20.16ZM178.081 17.84C179.561 17.84 180.421 16.82 180.421 15.08C180.421 13.32 179.561 12.28 178.081 12.28C176.601 12.28 175.741 13.32 175.741 15.08C175.741 16.82 176.601 17.84 178.081 17.84ZM184.795 20V10.12H187.835L187.715 12.94H187.755C188.175 11.06 189.235 9.96 191.175 9.96C193.195 9.96 194.375 11.26 194.375 13.82C194.375 14.38 194.315 15.26 194.275 15.78H191.515C191.555 15.3 191.575 14.8 191.575 14.5C191.575 13.06 190.995 12.48 190.035 12.48C188.735 12.48 187.835 13.54 187.835 15.74V20H184.795ZM195.714 20V6.14H198.754V14.88H198.774L202.994 10.12H206.694L202.534 14.42L206.934 20H202.934L200.354 16.36L198.754 17.98V20H195.714Z" fill="white"/>
</svg>
