<svg width="106" height="46" viewBox="0 0 106 46" fill="none" xmlns="http://www.w3.org/2000/svg">
<path fill-rule="evenodd" clip-rule="evenodd" d="M8.04818 8.80469H11.4381L6.5033 33.4396H3.06909L8.04818 8.80469Z" fill="#00B386"/>
<path fill-rule="evenodd" clip-rule="evenodd" d="M17.9247 6.86781L21.335 6.79138L13.3514 45.9999H9.91724L17.9247 6.86781Z" fill="#00B386"/>
<path fill-rule="evenodd" clip-rule="evenodd" d="M2.67008 15.1484H23.8892L23.0434 18.5676L1.86865 18.4413L2.67008 15.1484Z" fill="#00B386"/>
<path fill-rule="evenodd" clip-rule="evenodd" d="M0.801428 23.5149L22.3582 23.588L21.4578 26.8443L0 26.8077L0.801428 23.5149Z" fill="#00B386"/>
<path fill-rule="evenodd" clip-rule="evenodd" d="M21.035 0L23.1972 6.9645L16.281 6.83159L21.035 0Z" fill="#00B386"/>
<path fill-rule="evenodd" clip-rule="evenodd" d="M19.64 15.1378H20.4926L19.7764 18.5503L18.9409 18.5436L19.64 15.1378Z" fill="#E2E3DE"/>
<path fill-rule="evenodd" clip-rule="evenodd" d="M8.48471 23.5419L9.26909 23.5452L8.66205 26.8281L7.76172 26.8713L8.48471 23.5419Z" fill="#E2E3DE"/>
<path fill-rule="evenodd" clip-rule="evenodd" d="M6.09421 18.4678L9.49772 18.4877L9.38177 19.0825L5.97144 19.0891L6.09421 18.4678Z" fill="#E2E3DE"/>
<path fill-rule="evenodd" clip-rule="evenodd" d="M13.839 26.8306L17.2834 26.8372L17.0822 27.6712H13.6685L13.839 26.8306Z" fill="#E2E3DE"/>
<path d="M35.7035 27.058C36.2069 27.058 36.5901 26.8521 36.8532 26.4403C37.1277 26.0171 37.265 25.4394 37.265 24.7073V19.2853C37.265 17.0547 36.7388 15.9394 35.6864 15.9394C35.1945 15.9394 34.8113 16.1396 34.5368 16.54C34.2622 16.9403 34.125 17.5065 34.125 18.2386V23.8151C34.125 25.9771 34.6512 27.058 35.7035 27.058ZM35.5663 29.117C32.9468 29.117 31.0307 28.5222 29.8182 27.3326C28.6057 26.1429 27.9994 24.2441 27.9994 21.636C27.9994 19.0508 28.6114 17.1062 29.8354 15.8021C31.0593 14.4867 33.0497 13.8289 35.8065 13.8289C38.4946 13.8289 40.4335 14.4581 41.6232 15.7164C42.8243 16.9632 43.4248 18.8563 43.4248 21.3958C43.4248 24.0267 42.7899 25.9713 41.5202 27.2296C40.2619 28.4879 38.2773 29.117 35.5663 29.117ZM50.2283 29.117C48.684 29.117 47.603 28.6538 46.9853 27.7272C46.3791 26.8007 46.0759 25.2335 46.0759 23.0258V17.192H44.892V14.807L46.9167 14.1721L48.6668 10.1742H51.6867V14.1721H54.5007V17.192H51.6352V23.5749C51.6352 24.49 51.7668 25.0963 52.0299 25.3937C52.293 25.6911 52.6991 25.8398 53.2481 25.8398C53.4883 25.8398 53.7057 25.8112 53.9001 25.754C54.0946 25.6968 54.2547 25.6167 54.3806 25.5138V27.8473C54.209 28.0189 53.9859 28.1905 53.7114 28.3621C53.4369 28.5222 52.9793 28.6881 52.3387 28.8597C51.7096 29.0312 51.0061 29.117 50.2283 29.117ZM68.9971 26.9379C67.5444 28.3907 65.8171 29.117 63.8153 29.117C62.3969 29.117 61.1672 28.8711 60.1262 28.3792C59.0967 27.8874 58.2789 27.1781 57.6726 26.2516C57.0663 25.325 56.6202 24.2669 56.3342 23.0773C56.0597 21.8876 55.9224 20.5321 55.9224 19.0108C55.9224 17.8783 55.9796 16.8602 56.094 15.9566C56.2198 15.0529 56.42 14.1893 56.6946 13.3657C56.9691 12.5421 57.3466 11.8328 57.827 11.238C58.3074 10.6318 58.8966 10.1056 59.5943 9.65946C60.2921 9.21334 61.1386 8.88161 62.1338 8.66427C63.1289 8.43549 64.2614 8.3211 65.5311 8.3211C66.1031 8.3211 66.6464 8.35542 67.1612 8.42405C67.6874 8.49269 68.1335 8.57848 68.4995 8.68143C68.8656 8.77294 69.2087 8.89305 69.529 9.04176C69.8607 9.17902 70.1181 9.30485 70.3011 9.41924C70.4956 9.52219 70.6729 9.63658 70.8331 9.76241C70.9932 9.88823 71.0904 9.97403 71.1247 10.0198C71.1705 10.0655 71.2048 10.0999 71.2277 10.1227L70.9703 14.0692H67.8475L66.8695 11.7871C66.6178 11.6498 66.2117 11.5812 65.6512 11.5812C65.1937 11.5812 64.8162 11.6212 64.5188 11.7013C64.2214 11.7814 63.924 11.953 63.6265 12.2161C63.3406 12.4677 63.1118 12.8395 62.9402 13.3313C62.7801 13.8118 62.6485 14.4695 62.5456 15.3046C62.4426 16.1282 62.3911 17.1348 62.3911 18.3244C62.3911 20.8067 62.5227 22.6483 62.7858 23.8494C63.0603 25.0505 63.6037 25.6511 64.4158 25.6511C64.8162 25.6511 65.1536 25.6167 65.4282 25.5481C65.7027 25.468 65.9601 25.3308 66.2003 25.1363C66.4405 24.9304 66.6178 24.633 66.7322 24.2441C66.8466 23.8437 66.9038 23.3347 66.9038 22.717V20.9668L64.6389 20.4521V16.9518H72.2744L72.2572 28.7567H69.203L68.9971 26.9379ZM75.0961 28.7567V17.6553L74.0666 17.0204V15.1844L77.7557 14.1721H80.6211V28.7567H75.0961ZM77.5841 12.5935L74.7701 9.76241V9.16186L77.5841 6.34789H78.2361L81.1702 9.16186V9.76241L78.2361 12.5935H77.5841ZM88.4201 29.117C87.3449 29.117 86.2582 28.9397 85.1601 28.5851C84.0619 28.2191 83.3584 27.8645 83.0496 27.5213L83.4957 24.7588C83.8846 25.1363 84.5309 25.4623 85.4346 25.7368C86.3497 26.0114 87.282 26.1486 88.2314 26.1486C88.9177 26.1486 89.3867 26.0629 89.6384 25.8913C89.9015 25.7197 90.033 25.4795 90.033 25.1706C90.033 24.8732 89.8043 24.6101 89.3467 24.3813C88.8891 24.1411 88.1456 23.8666 87.1161 23.5577C84.4508 22.757 83.1182 21.0984 83.1182 18.5818C83.1182 17.5523 83.4156 16.6715 84.0104 15.9394C84.6053 15.1959 85.366 14.6583 86.2925 14.3265C87.2191 13.9948 88.2543 13.8289 89.3982 13.8289C91.3542 13.8289 92.7955 14.1893 93.7221 14.9099C93.928 15.1044 94.0309 15.2016 94.0309 15.2016L93.276 17.6553C92.521 16.9117 91.4801 16.54 90.1531 16.54C89.0664 16.54 88.5231 16.8602 88.5231 17.5008C88.5231 17.6839 88.5631 17.8383 88.6432 17.9641C88.7233 18.0785 88.8548 18.1814 89.0378 18.273C89.2323 18.353 89.421 18.4217 89.6041 18.4789C89.7871 18.5246 90.0445 18.5932 90.3762 18.6848C90.7079 18.7648 90.9939 18.8392 91.2341 18.9078C92.5725 19.3539 93.5448 19.9831 94.151 20.7952C94.7573 21.6074 95.0604 22.6197 95.0604 23.8323C95.0604 27.3554 92.847 29.117 88.4201 29.117ZM101.459 29.117C99.9149 29.117 98.834 28.6538 98.2163 27.7272C97.61 26.8007 97.3069 25.2335 97.3069 23.0258V17.192H96.1229V14.807L98.1476 14.1721L99.8978 10.1742H102.918V14.1721H105.732V17.192H102.866V23.5749C102.866 24.49 102.998 25.0963 103.261 25.3937C103.524 25.6911 103.93 25.8398 104.479 25.8398C104.719 25.8398 104.937 25.8112 105.131 25.754C105.326 25.6968 105.486 25.6167 105.612 25.5138V27.8473C105.44 28.0189 105.217 28.1905 104.942 28.3621C104.668 28.5222 104.21 28.6881 103.57 28.8597C102.941 29.0312 102.237 29.117 101.459 29.117Z" fill="#212121"/>
</svg>
