<svg width="128" height="56" viewBox="0 0 128 56" fill="none" xmlns="http://www.w3.org/2000/svg">
<path fill-rule="evenodd" clip-rule="evenodd" d="M9.71848 10.7188H13.8119L7.85296 40.7091H3.70599L9.71848 10.7188Z" fill="#00B386"/>
<path fill-rule="evenodd" clip-rule="evenodd" d="M21.6449 8.36086L25.763 8.26782L16.1224 56H11.9755L21.6449 8.36086Z" fill="#00B386"/>
<path fill-rule="evenodd" clip-rule="evenodd" d="M3.22435 18.4417H28.8474L27.8261 22.6041L2.25659 22.4503L3.22435 18.4417Z" fill="#00B386"/>
<path fill-rule="evenodd" clip-rule="evenodd" d="M0.967763 28.6267L26.9985 28.7157L25.9113 32.6799L0 32.6354L0.967763 28.6267Z" fill="#00B386"/>
<path fill-rule="evenodd" clip-rule="evenodd" d="M25.4008 0L28.0117 8.47853L19.6601 8.31672L25.4008 0Z" fill="#00B386"/>
<path fill-rule="evenodd" clip-rule="evenodd" d="M23.7164 18.4287H24.7459L23.8811 22.583L22.8721 22.5749L23.7164 18.4287Z" fill="#E2E3DE"/>
<path fill-rule="evenodd" clip-rule="evenodd" d="M10.2457 28.6597L11.1928 28.6637L10.4598 32.6603L9.37262 32.7129L10.2457 28.6597Z" fill="#E2E3DE"/>
<path fill-rule="evenodd" clip-rule="evenodd" d="M7.35901 22.4824L11.4689 22.5067L11.3289 23.2308L7.21075 23.2389L7.35901 22.4824Z" fill="#E2E3DE"/>
<path fill-rule="evenodd" clip-rule="evenodd" d="M16.7113 32.6633L20.8707 32.6714L20.6277 33.6867H16.5054L16.7113 32.6633Z" fill="#E2E3DE"/>
<path d="M43.1136 32.6092C43.7214 32.6092 44.1842 32.3605 44.5019 31.8633C44.8334 31.3522 44.9991 30.6546 44.9991 29.7706V23.2232C44.9991 20.5297 44.3637 19.1829 43.0929 19.1829C42.499 19.1829 42.0362 19.4246 41.7047 19.9081C41.3732 20.3915 41.2075 21.0753 41.2075 21.9593V28.6932C41.2075 31.3038 41.8429 32.6092 43.1136 32.6092ZM42.9479 35.0955C39.7847 35.0955 37.471 34.3772 36.0068 32.9407C34.5427 31.5041 33.8106 29.2112 33.8106 26.0618C33.8106 22.9401 34.5496 20.5918 36.0276 19.0172C37.5056 17.4287 39.909 16.6344 43.238 16.6344C46.484 16.6344 48.8253 17.3941 50.2619 18.9136C51.7123 20.4192 52.4374 22.7052 52.4374 25.7717C52.4374 28.9487 51.6708 31.2969 50.1376 32.8164C48.6181 34.3358 46.2216 35.0955 42.9479 35.0955ZM60.6529 35.0955C58.7882 35.0955 57.4828 34.5361 56.7369 33.4172C56.0048 32.2984 55.6388 30.406 55.6388 27.7401V20.6954H54.2091V17.8154L56.6541 17.0488L58.7674 12.2211H62.4141V17.0488H65.8121V20.6954H62.3519V28.4031C62.3519 29.5081 62.5108 30.2402 62.8285 30.5994C63.1462 30.9585 63.6365 31.1381 64.2996 31.1381C64.5896 31.1381 64.8521 31.1035 65.0869 31.0345C65.3217 30.9654 65.5151 30.8687 65.667 30.7444V33.5623C65.4599 33.7695 65.1905 33.9767 64.859 34.1839C64.5275 34.3772 63.975 34.5775 63.2014 34.7847C62.4417 34.9919 61.5922 35.0955 60.6529 35.0955ZM83.3172 32.4641C81.5629 34.2184 79.4772 35.0955 77.0599 35.0955C75.3471 35.0955 73.8622 34.7985 72.6052 34.2046C71.362 33.6106 70.3744 32.7542 69.6423 31.6353C68.9102 30.5165 68.3715 29.2388 68.0262 27.8022C67.6947 26.3657 67.5289 24.7288 67.5289 22.8917C67.5289 21.5242 67.598 20.2949 67.7361 19.2036C67.8881 18.1124 68.1298 17.0695 68.4613 16.075C68.7928 15.0804 69.2486 14.224 69.8288 13.5058C70.4089 12.7737 71.1203 12.1383 71.9629 11.5996C72.8055 11.0609 73.8277 10.6603 75.0294 10.3978C76.2311 10.1216 77.5986 9.98344 79.1319 9.98344C79.8225 9.98344 80.4786 10.0249 81.1002 10.1078C81.7356 10.1906 82.2743 10.2942 82.7163 10.4185C83.1583 10.5291 83.5727 10.6741 83.9595 10.8537C84.3601 11.0194 84.6709 11.1714 84.8919 11.3095C85.1267 11.4338 85.3408 11.5719 85.5342 11.7239C85.7276 11.8758 85.845 11.9794 85.8864 12.0347C85.9417 12.0899 85.9831 12.1314 86.0107 12.159L85.6999 16.9245H81.929L80.748 14.1688C80.4441 14.003 79.9537 13.9201 79.2769 13.9201C78.7244 13.9201 78.2685 13.9685 77.9094 14.0652C77.5503 14.1619 77.1911 14.3691 76.832 14.6868C76.4867 14.9907 76.2104 15.4396 76.0032 16.0335C75.8098 16.6137 75.651 17.4079 75.5267 18.4163C75.4023 19.4108 75.3402 20.6264 75.3402 22.0629C75.3402 25.0603 75.499 27.2842 75.8167 28.7346C76.1482 30.185 76.8044 30.9102 77.7851 30.9102C78.2685 30.9102 78.676 30.8687 79.0075 30.7858C79.339 30.6892 79.6498 30.5234 79.9399 30.2886C80.23 30.0399 80.4441 29.6808 80.5822 29.2112C80.7203 28.7277 80.7894 28.113 80.7894 27.3671V25.2537L78.0544 24.6321V20.4054H87.2746L87.2539 34.6604H83.5658L83.3172 32.4641ZM90.682 34.6604V21.2549L89.4389 20.4882V18.2713L93.8936 17.0488H97.3537V34.6604H90.682ZM93.6864 15.1426L90.2884 11.7239V10.9987L93.6864 7.60069H94.4737L98.0168 10.9987V11.7239L94.4737 15.1426H93.6864ZM106.771 35.0955C105.473 35.0955 104.161 34.8814 102.835 34.4532C101.509 34.0112 100.659 33.583 100.286 33.1686L100.825 29.8327C101.295 30.2886 102.075 30.6823 103.166 31.0138C104.271 31.3453 105.397 31.511 106.544 31.511C107.372 31.511 107.939 31.4074 108.243 31.2002C108.56 30.993 108.719 30.703 108.719 30.33C108.719 29.9709 108.443 29.6532 107.89 29.3769C107.338 29.0868 106.44 28.7553 105.197 28.3824C101.978 27.4155 100.369 25.4126 100.369 22.3737C100.369 21.1305 100.728 20.0669 101.447 19.1829C102.165 18.2851 103.083 17.6359 104.202 17.2353C105.321 16.8347 106.571 16.6344 107.952 16.6344C110.314 16.6344 112.055 17.0695 113.174 17.9397C113.422 18.1746 113.547 18.292 113.547 18.292L112.635 21.2549C111.723 20.357 110.466 19.9081 108.864 19.9081C107.552 19.9081 106.896 20.2949 106.896 21.0684C106.896 21.2894 106.944 21.4759 107.041 21.6278C107.137 21.7659 107.296 21.8903 107.517 22.0008C107.752 22.0975 107.98 22.1803 108.201 22.2494C108.422 22.3047 108.733 22.3875 109.133 22.498C109.534 22.5947 109.879 22.6845 110.169 22.7674C111.786 23.3061 112.96 24.0658 113.692 25.0465C114.424 26.0273 114.79 27.2497 114.79 28.7139C114.79 32.9683 112.117 35.0955 106.771 35.0955ZM122.517 35.0955C120.652 35.0955 119.347 34.5361 118.601 33.4172C117.869 32.2984 117.503 30.406 117.503 27.7401V20.6954H116.073V17.8154L118.518 17.0488L120.631 12.2211H124.278V17.0488H127.676V20.6954H124.216V28.4031C124.216 29.5081 124.375 30.2402 124.692 30.5994C125.01 30.9585 125.5 31.1381 126.163 31.1381C126.453 31.1381 126.716 31.1035 126.951 31.0345C127.185 30.9654 127.379 30.8687 127.531 30.7444V33.5623C127.324 33.7695 127.054 33.9767 126.723 34.1839C126.391 34.3772 125.839 34.5775 125.065 34.7847C124.305 34.9919 123.456 35.0955 122.517 35.0955Z" fill="white"/>
</svg>
