<svg width="169" height="31" viewBox="0 0 169 31" fill="none" xmlns="http://www.w3.org/2000/svg">
<path d="M4.61208 0.841213H9.29831V25.514H23.6774V30H4.61208V0.841213ZM37.0105 30.4406C35.0078 30.4406 33.2989 30.0534 31.8837 29.279C30.4685 28.5047 29.387 27.4366 28.6394 26.0748C27.8917 24.6863 27.5179 23.1242 27.5179 21.3885C27.5179 19.6796 27.9451 18.1442 28.7996 16.7824C29.654 15.4206 30.8022 14.3392 32.2441 13.5381C33.7128 12.7103 35.3282 12.2965 37.0906 12.2965C39.4137 12.2965 41.3229 12.9774 42.8182 14.3392C44.3402 15.6743 45.3549 17.5701 45.8623 20.0267L32.2041 24.6329L31.1627 22.1095L41.8169 18.3044L40.8957 18.8251C40.6019 18.0241 40.1213 17.3298 39.4537 16.7424C38.8129 16.1549 37.905 15.8612 36.7301 15.8612C35.7955 15.8612 34.9678 16.0882 34.2468 16.5421C33.5259 16.9693 32.9518 17.5835 32.5245 18.3845C32.124 19.1589 31.9237 20.0801 31.9237 21.1482C31.9237 22.243 32.1507 23.2043 32.6046 24.0321C33.0586 24.8598 33.6727 25.5007 34.4471 25.9546C35.2214 26.3819 36.1026 26.5955 37.0906 26.5955C37.7848 26.5955 38.4524 26.4753 39.0933 26.235C39.7341 25.9947 40.3349 25.6742 40.8957 25.2737L42.9384 28.5981C42.0572 29.1589 41.0826 29.6128 40.0145 29.9599C38.9731 30.2804 37.9718 30.4406 37.0105 30.4406ZM51.8784 5.60755H56.4044V13.0575H60.8103V16.5822H56.4044V30H51.8784V16.5822H48.9946V13.0575H51.8784V5.60755ZM66.8201 5.60755H71.3462V13.0575H75.752V16.5822H71.3462V30H66.8201V16.5822H63.9363V13.0575H66.8201V5.60755ZM88.2505 30.4406C86.2479 30.4406 84.5389 30.0534 83.1237 29.279C81.7085 28.5047 80.627 27.4366 79.8794 26.0748C79.1317 24.6863 78.7579 23.1242 78.7579 21.3885C78.7579 19.6796 79.1851 18.1442 80.0396 16.7824C80.8941 15.4206 82.0423 14.3392 83.4842 13.5381C84.9528 12.7103 86.5683 12.2965 88.3306 12.2965C90.6537 12.2965 92.5629 12.9774 94.0582 14.3392C95.5803 15.6743 96.595 17.5701 97.1023 20.0267L83.4441 24.6329L82.4027 22.1095L93.0569 18.3044L92.1357 18.8251C91.842 18.0241 91.3613 17.3298 90.6938 16.7424C90.0529 16.1549 89.145 15.8612 87.9701 15.8612C87.0356 15.8612 86.2078 16.0882 85.4868 16.5421C84.7659 16.9693 84.1918 17.5835 83.7646 18.3845C83.364 19.1589 83.1638 20.0801 83.1638 21.1482C83.1638 22.243 83.3907 23.2043 83.8447 24.0321C84.2986 24.8598 84.9127 25.5007 85.6871 25.9546C86.4615 26.3819 87.3426 26.5955 88.3306 26.5955C89.0249 26.5955 89.6924 26.4753 90.3333 26.235C90.9741 25.9947 91.5749 25.6742 92.1357 25.2737L94.1784 28.5981C93.2972 29.1589 92.3226 29.6128 91.2545 29.9599C90.2131 30.2804 89.2118 30.4406 88.2505 30.4406ZM105.562 13.0575L105.962 17.8639L105.802 17.183C106.283 16.1683 106.937 15.3004 107.765 14.5795C108.619 13.8318 109.487 13.2711 110.368 12.8973C111.249 12.4967 111.97 12.2965 112.531 12.2965L112.331 16.7824C111.049 16.6756 109.927 16.9159 108.966 17.5034C108.032 18.0641 107.297 18.8118 106.763 19.7464C106.256 20.6809 106.002 21.6689 106.002 22.7103V30H101.516V13.0575H105.562ZM122.21 30.3605C120.928 30.3605 119.7 30.1335 118.525 29.6796C117.377 29.2256 116.402 28.5581 115.601 27.6769L117.524 25.1536C118.271 25.8745 119.005 26.4086 119.726 26.7557C120.474 27.0761 121.182 27.2363 121.849 27.2363C122.357 27.2363 122.811 27.1829 123.211 27.0761C123.638 26.9426 123.972 26.7423 124.212 26.4753C124.479 26.2083 124.613 25.8478 124.613 25.3939C124.613 24.8598 124.426 24.4459 124.052 24.1522C123.678 23.8318 123.198 23.5781 122.61 23.3912C122.023 23.1776 121.409 22.9773 120.768 22.7904C119.299 22.3365 118.204 21.6689 117.483 20.7877C116.763 19.9066 116.402 18.8919 116.402 17.7437C116.402 16.8625 116.629 16.0214 117.083 15.2203C117.537 14.3926 118.231 13.7117 119.166 13.1776C120.1 12.6436 121.275 12.3766 122.69 12.3766C123.972 12.3766 125.08 12.5234 126.015 12.8171C126.976 13.0842 127.871 13.5515 128.698 14.219L126.976 16.9026C126.495 16.4486 125.921 16.1015 125.254 15.8612C124.613 15.5942 124.025 15.4473 123.491 15.4206C123.011 15.3939 122.584 15.4607 122.21 15.6209C121.836 15.7544 121.529 15.9547 121.289 16.2217C121.075 16.4887 120.968 16.7958 120.968 17.1429C120.941 17.6769 121.115 18.1042 121.489 18.4246C121.889 18.745 122.397 18.9987 123.011 19.1856C123.625 19.3725 124.239 19.5728 124.853 19.7864C125.681 20.0267 126.415 20.3605 127.056 20.7877C127.697 21.215 128.191 21.7357 128.538 22.3498C128.912 22.9373 129.099 23.6716 129.099 24.5528C129.099 25.5674 128.845 26.5287 128.338 27.4366C127.831 28.3178 127.07 29.0254 126.055 29.5594C125.04 30.0935 123.758 30.3605 122.21 30.3605Z" fill="white"/>
<path d="M132.017 27.5567C132.017 26.8625 132.271 26.2884 132.778 25.8345C133.285 25.3538 133.846 25.1135 134.46 25.1135C135.021 25.1135 135.555 25.3538 136.062 25.8345C136.57 26.2884 136.823 26.8625 136.823 27.5567C136.823 28.3044 136.57 28.9052 136.062 29.3591C135.555 29.7864 135.021 30 134.46 30C133.846 30 133.285 29.7864 132.778 29.3591C132.271 28.9052 132.017 28.3044 132.017 27.5567ZM138.823 27.5567C138.823 26.8625 139.076 26.2884 139.584 25.8345C140.091 25.3538 140.652 25.1135 141.266 25.1135C141.827 25.1135 142.361 25.3538 142.868 25.8345C143.376 26.2884 143.629 26.8625 143.629 27.5567C143.629 28.3044 143.376 28.9052 142.868 29.3591C142.361 29.7864 141.827 30 141.266 30C140.652 30 140.091 29.7864 139.584 29.3591C139.076 28.9052 138.823 28.3044 138.823 27.5567ZM145.629 27.5567C145.629 26.8625 145.882 26.2884 146.39 25.8345C146.897 25.3538 147.458 25.1135 148.072 25.1135C148.633 25.1135 149.167 25.3538 149.674 25.8345C150.181 26.2884 150.435 26.8625 150.435 27.5567C150.435 28.3044 150.181 28.9052 149.674 29.3591C149.167 29.7864 148.633 30 148.072 30C147.458 30 146.897 29.7864 146.39 29.3591C145.882 28.9052 145.629 28.3044 145.629 27.5567Z" fill="#E3855B"/>
<g clip-path="url(#clip0_80_333)">
<path d="M165.684 8.69559L165.835 8.54454C165.949 8.43091 166.084 8.34079 166.232 8.27932C166.381 8.21785 166.54 8.18623 166.701 8.18628C166.862 8.18633 167.021 8.21803 167.169 8.27959C167.318 8.34115 167.453 8.43135 167.566 8.54505C167.68 8.65874 167.77 8.7937 167.831 8.94223C167.893 9.09075 167.925 9.24993 167.924 9.41068C167.924 9.57142 167.893 9.73058 167.831 9.87907C167.77 10.0276 167.679 10.1625 167.566 10.2761L167.415 10.4261C167.673 10.7159 167.811 11.0936 167.8 11.4817C167.789 11.8698 167.629 12.239 167.355 12.5135L156.921 22.9485C156.856 23.0134 156.774 23.0593 156.685 23.0813L152.63 24.0951C152.545 24.1162 152.456 24.1151 152.371 24.0917C152.287 24.0683 152.21 24.0235 152.149 23.9617C152.087 23.8998 152.042 23.823 152.019 23.7388C151.995 23.6545 151.994 23.5656 152.015 23.4808L153.029 19.4256C153.051 19.3366 153.097 19.2553 153.162 19.1904L162.937 9.41539C162.839 9.34658 162.72 9.31454 162.601 9.32493C162.482 9.33532 162.37 9.38747 162.286 9.47216L158.948 12.8106C158.901 12.8577 158.845 12.8951 158.784 12.9206C158.722 12.9461 158.656 12.9592 158.59 12.9592C158.523 12.9592 158.457 12.9461 158.395 12.9206C158.334 12.8951 158.278 12.8577 158.231 12.8106C158.184 12.7635 158.146 12.7075 158.121 12.6459C158.095 12.5843 158.082 12.5183 158.082 12.4517C158.082 12.385 158.095 12.319 158.121 12.2575C158.146 12.1959 158.184 12.1399 158.231 12.0928L161.57 8.75541C161.845 8.48068 162.214 8.32153 162.603 8.31059C162.991 8.29966 163.369 8.43778 163.659 8.69661C163.937 8.44766 164.298 8.30996 164.671 8.30977C165.045 8.30958 165.405 8.44692 165.684 8.69559Z" fill="#E3855B"/>
</g>
<defs>
<clipPath id="clip0_80_333">
<rect width="16.2207" height="16.2207" fill="white" transform="translate(152 7.88965)"/>
</clipPath>
</defs>
</svg>
