<svg width="111" height="19" viewBox="0 0 111 19" fill="none" xmlns="http://www.w3.org/2000/svg">
<path d="M4.22422 0.527999H7.03222V15.312H15.6482V18H4.22422V0.527999ZM23.6374 18.264C22.4374 18.264 21.4134 18.032 20.5654 17.568C19.7174 17.104 19.0694 16.464 18.6214 15.648C18.1734 14.816 17.9494 13.88 17.9494 12.84C17.9494 11.816 18.2054 10.896 18.7174 10.08C19.2294 9.264 19.9174 8.616 20.7814 8.136C21.6614 7.64 22.6294 7.392 23.6854 7.392C25.0774 7.392 26.2214 7.8 27.1174 8.616C28.0294 9.416 28.6374 10.552 28.9414 12.024L20.7574 14.784L20.1334 13.272L26.5174 10.992L25.9654 11.304C25.7894 10.824 25.5014 10.408 25.1014 10.056C24.7174 9.704 24.1734 9.528 23.4694 9.528C22.9094 9.528 22.4134 9.664 21.9814 9.936C21.5494 10.192 21.2054 10.56 20.9494 11.04C20.7094 11.504 20.5894 12.056 20.5894 12.696C20.5894 13.352 20.7254 13.928 20.9974 14.424C21.2694 14.92 21.6374 15.304 22.1014 15.576C22.5654 15.832 23.0934 15.96 23.6854 15.96C24.1014 15.96 24.5014 15.888 24.8854 15.744C25.2694 15.6 25.6294 15.408 25.9654 15.168L27.1894 17.16C26.6614 17.496 26.0774 17.768 25.4374 17.976C24.8134 18.168 24.2134 18.264 23.6374 18.264ZM32.5463 3.384H35.2583V7.848H37.8983V9.96H35.2583V18H32.5463V9.96H30.8183V7.848H32.5463V3.384ZM41.4994 3.384H44.2114V7.848H46.8514V9.96H44.2114V18H41.4994V9.96H39.7714V7.848H41.4994V3.384ZM54.3405 18.264C53.1405 18.264 52.1165 18.032 51.2685 17.568C50.4205 17.104 49.7725 16.464 49.3245 15.648C48.8765 14.816 48.6525 13.88 48.6525 12.84C48.6525 11.816 48.9085 10.896 49.4205 10.08C49.9325 9.264 50.6205 8.616 51.4845 8.136C52.3645 7.64 53.3325 7.392 54.3885 7.392C55.7805 7.392 56.9245 7.8 57.8205 8.616C58.7325 9.416 59.3405 10.552 59.6445 12.024L51.4605 14.784L50.8365 13.272L57.2205 10.992L56.6685 11.304C56.4925 10.824 56.2045 10.408 55.8045 10.056C55.4205 9.704 54.8765 9.528 54.1725 9.528C53.6125 9.528 53.1165 9.664 52.6845 9.936C52.2525 10.192 51.9085 10.56 51.6525 11.04C51.4125 11.504 51.2925 12.056 51.2925 12.696C51.2925 13.352 51.4285 13.928 51.7005 14.424C51.9725 14.92 52.3405 15.304 52.8045 15.576C53.2685 15.832 53.7965 15.96 54.3885 15.96C54.8045 15.96 55.2045 15.888 55.5885 15.744C55.9725 15.6 56.3325 15.408 56.6685 15.168L57.8925 17.16C57.3645 17.496 56.7805 17.768 56.1405 17.976C55.5165 18.168 54.9165 18.264 54.3405 18.264ZM64.7134 7.848L64.9534 10.728L64.8574 10.32C65.1454 9.712 65.5374 9.192 66.0334 8.76C66.5454 8.312 67.0654 7.976 67.5934 7.752C68.1214 7.512 68.5534 7.392 68.8894 7.392L68.7694 10.08C68.0014 10.016 67.3294 10.16 66.7534 10.512C66.1934 10.848 65.7534 11.296 65.4334 11.856C65.1294 12.416 64.9774 13.008 64.9774 13.632V18H62.2894V7.848H64.7134ZM74.689 18.216C73.921 18.216 73.185 18.08 72.481 17.808C71.793 17.536 71.209 17.136 70.729 16.608L71.881 15.096C72.329 15.528 72.769 15.848 73.201 16.056C73.649 16.248 74.073 16.344 74.473 16.344C74.777 16.344 75.049 16.312 75.289 16.248C75.545 16.168 75.745 16.048 75.889 15.888C76.049 15.728 76.129 15.512 76.129 15.24C76.129 14.92 76.017 14.672 75.793 14.496C75.569 14.304 75.281 14.152 74.929 14.04C74.577 13.912 74.209 13.792 73.825 13.68C72.945 13.408 72.289 13.008 71.857 12.48C71.425 11.952 71.209 11.344 71.209 10.656C71.209 10.128 71.345 9.624 71.617 9.144C71.889 8.648 72.305 8.24 72.865 7.92C73.425 7.6 74.129 7.44 74.977 7.44C75.745 7.44 76.409 7.528 76.969 7.704C77.545 7.864 78.081 8.144 78.577 8.544L77.545 10.152C77.257 9.88 76.913 9.672 76.513 9.528C76.129 9.368 75.777 9.28 75.457 9.264C75.169 9.248 74.913 9.288 74.689 9.384C74.465 9.464 74.281 9.584 74.137 9.744C74.009 9.904 73.945 10.088 73.945 10.296C73.929 10.616 74.033 10.872 74.257 11.064C74.497 11.256 74.801 11.408 75.169 11.52C75.537 11.632 75.905 11.752 76.273 11.88C76.769 12.024 77.209 12.224 77.593 12.48C77.977 12.736 78.273 13.048 78.481 13.416C78.705 13.768 78.817 14.208 78.817 14.736C78.817 15.344 78.665 15.92 78.361 16.464C78.057 16.992 77.601 17.416 76.993 17.736C76.385 18.056 75.617 18.216 74.689 18.216Z" fill="#212121"/>
<path d="M80.5654 16.536C80.5654 16.12 80.7174 15.776 81.0214 15.504C81.3254 15.216 81.6614 15.072 82.0294 15.072C82.3654 15.072 82.6854 15.216 82.9894 15.504C83.2934 15.776 83.4454 16.12 83.4454 16.536C83.4454 16.984 83.2934 17.344 82.9894 17.616C82.6854 17.872 82.3654 18 82.0294 18C81.6614 18 81.3254 17.872 81.0214 17.616C80.7174 17.344 80.5654 16.984 80.5654 16.536ZM84.6435 16.536C84.6435 16.12 84.7955 15.776 85.0995 15.504C85.4035 15.216 85.7395 15.072 86.1075 15.072C86.4435 15.072 86.7635 15.216 87.0675 15.504C87.3715 15.776 87.5235 16.12 87.5235 16.536C87.5235 16.984 87.3715 17.344 87.0675 17.616C86.7635 17.872 86.4435 18 86.1075 18C85.7395 18 85.4035 17.872 85.0995 17.616C84.7955 17.344 84.6435 16.984 84.6435 16.536ZM88.7217 16.536C88.7217 16.12 88.8737 15.776 89.1777 15.504C89.4817 15.216 89.8177 15.072 90.1857 15.072C90.5217 15.072 90.8417 15.216 91.1457 15.504C91.4497 15.776 91.6017 16.12 91.6017 16.536C91.6017 16.984 91.4497 17.344 91.1457 17.616C90.8417 17.872 90.5217 18 90.1857 18C89.8177 18 89.4817 17.872 89.1777 17.616C88.8737 17.344 88.7217 16.984 88.7217 16.536Z" fill="#E3855B"/>
<g clip-path="url(#clip0_305_696)">
<path d="M107.684 2.19559L107.835 2.04454C107.949 1.93091 108.084 1.84079 108.232 1.77932C108.381 1.71785 108.54 1.68623 108.701 1.68628C108.862 1.68633 109.021 1.71803 109.169 1.77959C109.318 1.84115 109.453 1.93135 109.566 2.04505C109.68 2.15874 109.77 2.2937 109.831 2.44223C109.893 2.59075 109.925 2.74993 109.924 2.91068C109.924 3.07142 109.893 3.23058 109.831 3.37907C109.77 3.52756 109.679 3.66247 109.566 3.7761L109.415 3.92614C109.673 4.21594 109.811 4.59361 109.8 4.98173C109.789 5.36984 109.629 5.73901 109.355 6.01354L98.9209 16.4485C98.8557 16.5134 98.774 16.5593 98.6847 16.5813L94.6295 17.5951C94.5446 17.6162 94.4558 17.6151 94.3715 17.5917C94.2872 17.5683 94.2104 17.5235 94.1486 17.4617C94.0867 17.3998 94.042 17.323 94.0186 17.2388C93.9952 17.1545 93.994 17.0656 94.0151 16.9808L95.0289 12.9256C95.0511 12.8366 95.097 12.7553 95.1617 12.6904L104.937 2.91539C104.839 2.84658 104.72 2.81454 104.601 2.82493C104.482 2.83532 104.37 2.88747 104.286 2.97216L100.948 6.31058C100.901 6.35771 100.845 6.39509 100.784 6.4206C100.722 6.44611 100.656 6.45923 100.59 6.45923C100.523 6.45923 100.457 6.44611 100.395 6.4206C100.334 6.39509 100.278 6.35771 100.231 6.31058C100.184 6.26345 100.146 6.2075 100.121 6.14592C100.095 6.08435 100.082 6.01835 100.082 5.9517C100.082 5.88505 100.095 5.81905 100.121 5.75747C100.146 5.69589 100.184 5.63994 100.231 5.59281L103.57 2.25541C103.845 1.98068 104.214 1.82153 104.603 1.81059C104.991 1.79966 105.369 1.93778 105.659 2.19661C105.937 1.94766 106.298 1.80996 106.671 1.80977C107.045 1.80958 107.405 1.94692 107.684 2.19559Z" fill="#E3855B"/>
</g>
<defs>
<clipPath id="clip0_305_696">
<rect width="16.2207" height="16.2207" fill="white" transform="translate(94 1.38965)"/>
</clipPath>
</defs>
</svg>
