<svg width="174" height="37" viewBox="0 0 174 37" fill="none" xmlns="http://www.w3.org/2000/svg">
<path fill-rule="evenodd" clip-rule="evenodd" d="M16.5121 3.27759L2.06929 19.3252L0 21.6244H3.09327H8.87039V18.8691H6.18654L18.5601 5.12075L16.5121 3.27759ZM7.32669 32.7227L21.7695 16.6751L23.8388 14.3759H20.7455H14.9684V17.1312H17.6523L5.27873 30.8795L7.32669 32.7227Z" fill="#004481"/>
<path d="M38.5671 29.2122C37.1527 29.2122 35.8798 28.9697 34.7483 28.4848C33.6168 27.9796 32.7278 27.2725 32.0812 26.3632C31.4346 25.454 31.1114 24.3932 31.1114 23.1809H34.8089C34.8897 24.0901 35.2433 24.8377 35.8697 25.4237C36.5162 26.0096 37.4154 26.3026 38.5671 26.3026C39.7592 26.3026 40.6886 26.0197 41.3554 25.454C42.0222 24.868 42.3555 24.1205 42.3555 23.2112C42.3555 22.504 42.1434 21.9282 41.7191 21.4837C41.315 21.0392 40.7997 20.6957 40.1734 20.4532C39.5672 20.2108 38.7186 19.9481 37.6275 19.6652C36.2536 19.3015 35.1322 18.9378 34.2634 18.5741C33.4148 18.1902 32.6874 17.6043 32.0812 16.8163C31.4751 16.0283 31.172 14.9776 31.172 13.6643C31.172 12.452 31.4751 11.3912 32.0812 10.482C32.6874 9.57273 33.536 8.87565 34.6271 8.39072C35.7181 7.9058 36.981 7.66334 38.4155 7.66334C40.4563 7.66334 42.1232 8.17857 43.4163 9.20903C44.7297 10.2193 45.457 11.6134 45.5985 13.3915H41.7797C41.7191 12.6237 41.3554 11.967 40.6886 11.4215C40.0218 10.876 39.1429 10.6032 38.0518 10.6032C37.0618 10.6032 36.2536 10.8558 35.6272 11.3609C35.0009 11.866 34.6877 12.5934 34.6877 13.543C34.6877 14.1896 34.8796 14.725 35.2635 15.1494C35.6676 15.5535 36.1728 15.8767 36.7789 16.1192C37.3851 16.3617 38.2135 16.6243 39.2642 16.9072C40.6583 17.2911 41.7898 17.675 42.6586 18.0589C43.5476 18.4428 44.2952 19.0388 44.9014 19.8471C45.5278 20.6351 45.8409 21.6958 45.8409 23.0294C45.8409 24.1002 45.548 25.1105 44.962 26.0601C44.3963 27.0098 43.5578 27.7776 42.4465 28.3635C41.3554 28.9293 40.0623 29.2122 38.5671 29.2122ZM53.3729 14.7554C53.9588 13.9876 54.7569 13.341 55.7672 12.8157C56.7775 12.2903 57.9191 12.0277 59.192 12.0277C60.6468 12.0277 61.9702 12.3913 63.1623 13.1187C64.3746 13.8259 65.3242 14.8261 66.0112 16.1192C66.6982 17.4123 67.0417 18.8974 67.0417 20.5744C67.0417 22.2515 66.6982 23.7568 66.0112 25.0903C65.3242 26.4036 64.3746 27.4341 63.1623 28.1817C61.9702 28.9091 60.6468 29.2728 59.192 29.2728C57.9191 29.2728 56.7876 29.0202 55.7975 28.5151C54.8075 27.9897 53.9992 27.3432 53.3729 26.5754V36.9406H49.9178V12.3004H53.3729V14.7554ZM63.526 20.5744C63.526 19.4227 63.2835 18.4327 62.7986 17.6043C62.3339 16.7557 61.7075 16.1192 60.9195 15.6949C60.1517 15.2504 59.3233 15.0281 58.4343 15.0281C57.5655 15.0281 56.7371 15.2504 55.949 15.6949C55.1813 16.1394 54.5549 16.786 54.07 17.6346C53.6052 18.4832 53.3729 19.4834 53.3729 20.6351C53.3729 21.7868 53.6052 22.797 54.07 23.6658C54.5549 24.5145 55.1813 25.161 55.949 25.6055C56.7371 26.05 57.5655 26.2723 58.4343 26.2723C59.3233 26.2723 60.1517 26.05 60.9195 25.6055C61.7075 25.1408 62.3339 24.474 62.7986 23.6052C63.2835 22.7364 63.526 21.7261 63.526 20.5744ZM69.3067 20.5744C69.3067 18.8974 69.6502 17.4123 70.3372 16.1192C71.0444 14.8261 71.994 13.8259 73.1861 13.1187C74.3984 12.3913 75.732 12.0277 77.1867 12.0277C78.5001 12.0277 79.6417 12.2903 80.6115 12.8157C81.6016 13.3208 82.3896 13.9572 82.9755 14.725V12.3004H86.4609V29H82.9755V26.5148C82.3896 27.3028 81.5915 27.9594 80.5812 28.4848C79.5709 29.0101 78.4193 29.2728 77.1261 29.2728C75.6916 29.2728 74.3782 28.9091 73.1861 28.1817C71.994 27.4341 71.0444 26.4036 70.3372 25.0903C69.6502 23.7568 69.3067 22.2515 69.3067 20.5744ZM82.9755 20.6351C82.9755 19.4834 82.7331 18.4832 82.2481 17.6346C81.7834 16.786 81.1672 16.1394 80.3994 15.6949C79.6316 15.2504 78.8032 15.0281 77.9141 15.0281C77.0251 15.0281 76.1967 15.2504 75.4289 15.6949C74.6611 16.1192 74.0347 16.7557 73.5498 17.6043C73.0851 18.4327 72.8527 19.4227 72.8527 20.5744C72.8527 21.7261 73.0851 22.7364 73.5498 23.6052C74.0347 24.474 74.6611 25.1408 75.4289 25.6055C76.2169 26.05 77.0453 26.2723 77.9141 26.2723C78.8032 26.2723 79.6316 26.05 80.3994 25.6055C81.1672 25.161 81.7834 24.5145 82.2481 23.6658C82.7331 22.797 82.9755 21.7868 82.9755 20.6351ZM94.4541 14.725C94.9592 13.8764 95.626 13.2198 96.4544 12.755C97.303 12.2701 98.3032 12.0277 99.4549 12.0277V15.604H98.576C97.2222 15.604 96.1918 15.9475 95.4846 16.6344C94.7976 17.3214 94.4541 18.5135 94.4541 20.2107V29H90.999V12.3004H94.4541V14.725ZM109.238 20.6654L116.936 29H112.269L106.086 21.8171V29H102.631V6.57226H106.086V19.6046L112.147 12.3004H116.936L109.238 20.6654ZM134.142 14.2098C134.142 15.2807 133.89 16.2909 133.384 17.2406C132.879 18.1902 132.071 18.9681 130.96 19.5743C129.849 20.1602 128.424 20.4532 126.686 20.4532H122.868V29H119.413V7.93611H126.686C128.303 7.93611 129.667 8.21898 130.778 8.78472C131.909 9.33026 132.748 10.0779 133.294 11.0275C133.859 11.9771 134.142 13.0379 134.142 14.2098ZM126.686 17.6346C128 17.6346 128.98 17.3416 129.626 16.7557C130.273 16.1495 130.596 15.3009 130.596 14.2098C130.596 11.9064 129.293 10.7547 126.686 10.7547H122.868V17.6346H126.686ZM136.286 20.5744C136.286 18.8974 136.629 17.4123 137.316 16.1192C138.023 14.8261 138.973 13.8259 140.165 13.1187C141.377 12.3913 142.711 12.0277 144.166 12.0277C145.479 12.0277 146.621 12.2903 147.59 12.8157C148.581 13.3208 149.369 13.9572 149.954 14.725V12.3004H153.44V29H149.954V26.5148C149.369 27.3028 148.57 27.9594 147.56 28.4848C146.55 29.0101 145.398 29.2728 144.105 29.2728C142.671 29.2728 141.357 28.9091 140.165 28.1817C138.973 27.4341 138.023 26.4036 137.316 25.0903C136.629 23.7568 136.286 22.2515 136.286 20.5744ZM149.954 20.6351C149.954 19.4834 149.712 18.4832 149.227 17.6346C148.762 16.786 148.146 16.1394 147.378 15.6949C146.611 15.2504 145.782 15.0281 144.893 15.0281C144.004 15.0281 143.176 15.2504 142.408 15.6949C141.64 16.1192 141.014 16.7557 140.529 17.6043C140.064 18.4327 139.832 19.4227 139.832 20.5744C139.832 21.7261 140.064 22.7364 140.529 23.6052C141.014 24.474 141.64 25.1408 142.408 25.6055C143.196 26.05 144.024 26.2723 144.893 26.2723C145.782 26.2723 146.611 26.05 147.378 25.6055C148.146 25.161 148.762 24.5145 149.227 23.6658C149.712 22.797 149.954 21.7868 149.954 20.6351ZM173.011 12.3004L162.767 36.8497H159.19L162.585 28.7272L156.008 12.3004H159.857L164.555 25.0297L169.434 12.3004H173.011Z" fill="white"/>
</svg>
