<svg width="142" height="68" viewBox="0 0 142 68" fill="none" xmlns="http://www.w3.org/2000/svg">
<path fill-rule="evenodd" clip-rule="evenodd" d="M9.52 0C4.26225 0 0 4.26225 0 9.52C0 14.7777 4.26226 19.04 9.52001 19.04H25.5292C26.6364 19.04 27.5339 19.9375 27.5339 21.0447V58.822C27.5339 63.8909 31.643 68 36.7119 68C41.7808 68 45.8899 63.8909 45.8899 58.822V9.58782C45.8901 9.56523 45.8902 9.54262 45.8902 9.52C45.8902 9.49737 45.8901 9.47477 45.8899 9.45218V9.17804C45.8899 4.10915 41.7808 7.62939e-06 36.7119 7.62939e-06C36.6554 7.62939e-06 36.5991 0.000517891 36.5428 0.00153406C36.4854 0.000512789 36.4278 0 36.3702 0H9.52Z" fill="black"/>
<path fill-rule="evenodd" clip-rule="evenodd" d="M90.4376 0.0884279C90.6709 0.120963 90.9077 0.121427 91.1411 0.08932C91.5692 0.0304302 92.0063 0 92.4506 0H106.189C111.447 0 115.709 4.26225 115.709 9.52C115.709 14.7777 111.447 19.04 106.189 19.04H100.341C99.2341 19.04 98.3365 19.9375 98.3365 21.0447V24.5154C98.3365 25.6225 99.2341 26.5201 100.341 26.5201H100.945C106.202 26.5201 110.465 30.7823 110.465 36.04C110.465 41.2978 106.202 45.56 100.945 45.56H100.341C99.2341 45.56 98.3365 46.4576 98.3365 47.5647V58.822C98.3365 63.8909 94.2274 68 89.1585 68C84.0896 68 79.9805 63.8909 79.9805 58.822V9.17804C79.9805 4.10915 84.0896 7.62939e-06 89.1585 7.62939e-06C89.5926 7.62939e-06 90.0196 0.0301403 90.4376 0.0884279Z" fill="black"/>
<rect x="53.7573" y="68" width="44.2" height="18.3561" rx="9.17803" transform="rotate(-90 53.7573 68)" fill="black"/>
<ellipse cx="60.7736" cy="7.08718" rx="7.01631" ry="7.08718" fill="#F97316"/>
<path d="M65.0604 9.90209C65.0612 9.90283 65.0613 9.90411 65.0605 9.90487C64.9654 9.99582 64.8496 10.0537 64.7338 10.1124C64.2129 10.3823 63.694 10.653 63.1731 10.9247C63.0989 10.961 63.0266 10.9992 62.9534 11.0374C62.9423 11.0428 62.9343 11.0473 62.9232 11.0528C62.9002 11.0646 62.8771 11.0755 62.855 11.0891C62.4756 11.2845 62.0953 11.4816 61.7179 11.6797C61.6798 11.6988 61.6436 11.7179 61.6055 11.7369C61.5842 11.7475 61.5628 11.7578 61.542 11.7693C61.5233 11.7797 61.5047 11.79 61.4841 11.7987C61.452 11.8142 61.4208 11.8278 61.3847 11.8405C61.3315 11.8596 61.2763 11.8696 61.2191 11.8678C61.2133 11.8682 61.2075 11.8681 61.2017 11.8678C61.1678 11.8661 61.1334 11.8714 61.0995 11.8714C61.0869 11.8714 61.0744 11.8706 61.062 11.8684C60.8613 11.8332 60.7383 11.7117 60.7013 11.5107C60.6862 11.4398 60.6802 11.3653 60.6802 11.2927V7.9346C60.6802 7.80649 60.6972 7.67384 60.7675 7.55663C60.8267 7.46123 60.911 7.394 61.0304 7.37219C61.1428 7.35312 61.2573 7.35675 61.3666 7.39491C61.3796 7.39882 61.3928 7.40272 61.4054 7.40756C61.409 7.40895 61.4125 7.4105 61.4158 7.41217C61.4901 7.44306 61.5623 7.48122 61.6356 7.51757C61.6507 7.52756 61.6677 7.53483 61.6818 7.5421C62.0591 7.73562 62.4355 7.93278 62.8149 8.12903C62.8299 8.1363 62.845 8.14448 62.859 8.15174C62.8701 8.1572 62.8801 8.16356 62.8891 8.16719C63.3277 8.39706 63.7683 8.62511 64.2059 8.85316C64.4407 8.97581 64.6806 9.0912 64.9114 9.22476C65.0148 9.28018 65.0981 9.35741 65.1503 9.45645C65.2282 9.60128 65.1907 9.77136 65.0604 9.89931C65.0596 9.90008 65.0596 9.90136 65.0604 9.90209Z" fill="#F97316"/>
<rect x="123.644" y="68" width="44.2" height="18.3561" rx="9.17803" transform="rotate(-90 123.644 68)" fill="black"/>
<ellipse cx="132.775" cy="7.08718" rx="7.01631" ry="7.08718" fill="#F97316"/>
<path d="M134.9 7.30224C134.901 7.30298 134.901 7.30426 134.9 7.30502C134.805 7.39597 134.689 7.45382 134.573 7.51258C134.052 7.78242 133.534 8.05317 133.013 8.32484C132.938 8.36118 132.866 8.39934 132.793 8.4375C132.782 8.44295 132.774 8.44749 132.763 8.45294C132.74 8.46475 132.717 8.47566 132.695 8.48929C132.315 8.68463 131.935 8.88179 131.558 9.07985C131.519 9.09893 131.483 9.11801 131.445 9.13709C131.424 9.14761 131.402 9.15799 131.382 9.16949C131.363 9.17982 131.344 9.1901 131.324 9.19888C131.292 9.21432 131.26 9.22795 131.224 9.24067C131.171 9.25975 131.116 9.26974 131.059 9.26793C131.053 9.26839 131.047 9.26827 131.041 9.26798C131.007 9.26628 130.973 9.27156 130.939 9.27156C130.927 9.27156 130.914 9.27074 130.902 9.26857C130.701 9.23332 130.578 9.11187 130.541 8.91086C130.526 8.83999 130.52 8.76549 130.52 8.6928V5.33474C130.52 5.20664 130.537 5.07399 130.607 4.95678C130.666 4.86138 130.751 4.79415 130.87 4.77234C130.982 4.75326 131.097 4.7569 131.206 4.79506C131.219 4.79896 131.232 4.80287 131.245 4.80771C131.249 4.80909 131.252 4.81064 131.255 4.81232C131.33 4.84321 131.402 4.88137 131.475 4.91771C131.49 4.92771 131.507 4.93497 131.521 4.94224C131.899 5.13577 132.275 5.33293 132.654 5.52918C132.67 5.53645 132.685 5.54462 132.699 5.55189C132.71 5.55734 132.72 5.5637 132.729 5.56734C133.167 5.7972 133.608 6.02525 134.045 6.2533C134.28 6.37596 134.52 6.49135 134.751 6.62491C134.854 6.68033 134.938 6.75756 134.99 6.85659C135.068 7.00143 135.03 7.17151 134.9 7.29946C134.899 7.30023 134.899 7.3015 134.9 7.30224Z" fill="white"/>
</svg>
