<svg width="100" height="48" viewBox="0 0 100 48" fill="none" xmlns="http://www.w3.org/2000/svg">
<path fill-rule="evenodd" clip-rule="evenodd" d="M6.72 0C3.00865 0 0 3.00865 0 6.72C0 10.4314 3.00865 13.44 6.72 13.44H17.9752C18.7567 13.44 19.3902 14.0735 19.3902 14.8551V41.5366C19.3902 45.1062 22.284 48 25.8536 48C29.4233 48 32.317 45.1062 32.317 41.5366V6.73024C32.317 6.72682 32.317 6.72341 32.317 6.72C32.317 6.71659 32.317 6.71317 32.317 6.70976V6.46341C32.317 2.89377 29.4233 3.8147e-06 25.8536 3.8147e-06C25.8112 3.8147e-06 25.7689 0.00041231 25.7267 0.00122558C25.6835 0.000409749 25.6403 0 25.597 0H6.72Z" fill="white"/>
<path fill-rule="evenodd" clip-rule="evenodd" d="M63.6935 0.0629901C63.8592 0.0862218 64.0273 0.0865746 64.193 0.0636682C64.4966 0.0216933 64.8067 0 65.1218 0H74.7654C78.4768 0 81.4854 3.00865 81.4854 6.72C81.4854 10.4314 78.4767 13.44 74.7654 13.44H70.6661C69.8846 13.44 69.251 14.0735 69.251 14.8551V17.305C69.251 18.0865 69.8846 18.72 70.6661 18.72H71.072C74.7833 18.72 77.792 21.7287 77.792 25.44C77.792 29.1514 74.7833 32.16 71.072 32.16H70.6661C69.8846 32.16 69.251 32.7936 69.251 33.5751V41.5366C69.251 45.1062 66.3573 48 62.7876 48C59.218 48 56.3242 45.1062 56.3242 41.5366V6.46341C56.3242 2.89377 59.218 3.8147e-06 62.7876 3.8147e-06C63.0951 3.8147e-06 63.3975 0.0214716 63.6935 0.0629901Z" fill="white"/>
<rect x="37.8572" y="48" width="31.2" height="12.9268" rx="6.4634" transform="rotate(-90 37.8572 48)" fill="white"/>
<ellipse cx="42.8099" cy="5.00271" rx="4.95269" ry="5.00271" fill="#F97316"/>
<path d="M45.8207 6.98981C45.8213 6.99033 45.8213 6.99123 45.8207 6.99177C45.7536 7.05597 45.6719 7.09681 45.5901 7.13828C45.2224 7.32876 44.8562 7.51988 44.4885 7.71164C44.4361 7.73729 44.3851 7.76423 44.3334 7.79116C44.3256 7.79501 44.3199 7.79822 44.3121 7.80207C44.2958 7.81041 44.2795 7.8181 44.2639 7.82772C43.9961 7.96561 43.7276 8.10478 43.4613 8.24459C43.4344 8.25806 43.4089 8.27153 43.3819 8.285C43.3669 8.29242 43.3518 8.29975 43.3371 8.30787C43.3239 8.31516 43.3108 8.32242 43.2962 8.32861C43.2735 8.33951 43.2516 8.34913 43.2261 8.35811C43.1885 8.37158 43.1496 8.37863 43.1092 8.37735C43.1051 8.37767 43.101 8.37759 43.0969 8.37738C43.0729 8.37619 43.0487 8.37992 43.0247 8.37992C43.0159 8.37992 43.007 8.37934 42.9983 8.3778C42.8566 8.35292 42.7698 8.26719 42.7436 8.1253C42.733 8.07528 42.7288 8.02269 42.7288 7.97138V5.60099C42.7288 5.51056 42.7408 5.41692 42.7904 5.33419C42.8322 5.26685 42.8917 5.21939 42.976 5.204C43.0553 5.19053 43.1361 5.19309 43.2133 5.22003C43.2225 5.22279 43.2318 5.22554 43.2407 5.22896C43.2432 5.22994 43.2457 5.23103 43.248 5.23221C43.3005 5.25402 43.3515 5.28096 43.4032 5.30661C43.4138 5.31366 43.4259 5.3188 43.4358 5.32393C43.7021 5.46053 43.9678 5.5997 44.2356 5.73823C44.2462 5.74336 44.2568 5.74914 44.2668 5.75427C44.2746 5.75811 44.2816 5.7626 44.288 5.76517C44.5976 5.92743 44.9086 6.0884 45.2175 6.24938C45.3833 6.33596 45.5526 6.41741 45.7155 6.51169C45.7885 6.55081 45.8473 6.60533 45.8841 6.67523C45.9392 6.77747 45.9126 6.89753 45.8207 6.98784C45.8201 6.98838 45.8201 6.98929 45.8207 6.98981Z" fill="#F97316"/>
<rect x="87.0732" y="48" width="31.2" height="12.9268" rx="6.4634" transform="rotate(-90 87.0732 48)" fill="white"/>
<ellipse cx="93.5152" cy="5.00271" rx="4.95269" ry="5.00271" fill="#F97316"/>
<path d="M95.015 5.1546C95.0156 5.15512 95.0156 5.15603 95.0151 5.15656C94.948 5.22076 94.8662 5.2616 94.7844 5.30307C94.4168 5.49355 94.0505 5.68467 93.6828 5.87643C93.6304 5.90209 93.5794 5.92902 93.5277 5.95596C93.5199 5.95981 93.5142 5.96301 93.5064 5.96686C93.4901 5.9752 93.4739 5.9829 93.4583 5.99252C93.1905 6.1304 92.922 6.26958 92.6556 6.40939C92.6287 6.42286 92.6032 6.43632 92.5763 6.44979C92.5612 6.45721 92.5461 6.46454 92.5314 6.47266C92.5183 6.47995 92.5051 6.48721 92.4905 6.4934C92.4679 6.50431 92.4459 6.51393 92.4204 6.5229C92.3829 6.53637 92.3439 6.54343 92.3035 6.54215C92.2994 6.54247 92.2953 6.54238 92.2912 6.54218C92.2673 6.54099 92.243 6.54471 92.2191 6.54471C92.2102 6.54471 92.2013 6.54413 92.1926 6.5426C92.0509 6.51771 91.9641 6.43199 91.938 6.2901C91.9273 6.24007 91.9231 6.18748 91.9231 6.13618V3.76578C91.9231 3.67535 91.9351 3.58172 91.9847 3.49898C92.0265 3.43164 92.086 3.38418 92.1703 3.36879C92.2497 3.35532 92.3304 3.35789 92.4077 3.38482C92.4168 3.38758 92.4261 3.39034 92.435 3.39376C92.4376 3.39473 92.44 3.39583 92.4424 3.39701C92.4948 3.41882 92.5458 3.44575 92.5975 3.47141C92.6081 3.47846 92.6202 3.48359 92.6301 3.48872C92.8965 3.62533 93.1621 3.7645 93.4299 3.90303C93.4406 3.90816 93.4512 3.91393 93.4611 3.91906C93.4689 3.92291 93.476 3.9274 93.4824 3.92996C93.7919 4.09222 94.1029 4.2532 94.4118 4.41418C94.5776 4.50076 94.7469 4.58221 94.9098 4.67648C94.9828 4.71561 95.0416 4.77012 95.0784 4.84003C95.1335 4.94226 95.107 5.06232 95.015 5.15264C95.0145 5.15318 95.0145 5.15408 95.015 5.1546Z" fill="white"/>
</svg>
